<mxfile host="app.diagrams.net" agent="Mozilla/5.0 (Windows NT 10.0; Win64; x64) AppleWebKit/537.36 (KHTML, like Gecko) Chrome/139.0.0.0 Safari/537.36 Edg/139.0.0.0" version="28.0.9">
  <diagram name="Страница — 1" id="ur8z7fvTzCxGaoSUXb8u">
    <mxGraphModel dx="4391" dy="3301" grid="1" gridSize="10" guides="1" tooltips="1" connect="1" arrows="1" fold="1" page="1" pageScale="1" pageWidth="827" pageHeight="1169" math="0" shadow="0">
      <root>
        <mxCell id="0" />
        <mxCell id="1" parent="0" />
        <object placeholders="1" c4Name="Financial" c4Type="SystemScopeBoundary" c4Application="Software System" label="&lt;font style=&quot;font-size: 16px&quot;&gt;&lt;b&gt;&lt;div style=&quot;text-align: left&quot;&gt;%c4Name%&lt;/div&gt;&lt;/b&gt;&lt;/font&gt;&lt;div style=&quot;text-align: left&quot;&gt;[%c4Application%]&lt;/div&gt;" id="8P7EJQTEe8MfBTLbJezU-1">
          <mxCell style="rounded=1;fontSize=11;whiteSpace=wrap;html=1;dashed=1;arcSize=20;fillColor=none;strokeColor=#666666;fontColor=#333333;labelBackgroundColor=none;align=left;verticalAlign=bottom;labelBorderColor=none;spacingTop=0;spacing=10;dashPattern=8 4;metaEdit=1;rotatable=0;perimeter=rectanglePerimeter;noLabel=0;labelPadding=0;allowArrows=0;connectable=0;expand=0;recursiveResize=0;editable=1;pointerEvents=0;absoluteArcSize=1;points=[[0.25,0,0],[0.5,0,0],[0.75,0,0],[1,0.25,0],[1,0.5,0],[1,0.75,0],[0.75,1,0],[0.5,1,0],[0.25,1,0],[0,0.75,0],[0,0.5,0],[0,0.25,0]];" vertex="1" parent="1">
            <mxGeometry x="-440" y="-80" width="1020" height="640" as="geometry" />
          </mxCell>
        </object>
        <object placeholders="1" c4Name="Medicine" c4Type="SystemScopeBoundary" c4Application="Software System" label="&lt;font style=&quot;font-size: 16px&quot;&gt;&lt;b&gt;&lt;div style=&quot;text-align: left&quot;&gt;%c4Name%&lt;/div&gt;&lt;/b&gt;&lt;/font&gt;&lt;div style=&quot;text-align: left&quot;&gt;[%c4Application%]&lt;/div&gt;" id="8P7EJQTEe8MfBTLbJezU-3">
          <mxCell style="rounded=1;fontSize=11;whiteSpace=wrap;html=1;dashed=1;arcSize=20;fillColor=none;strokeColor=#666666;fontColor=#333333;labelBackgroundColor=none;align=left;verticalAlign=bottom;labelBorderColor=none;spacingTop=0;spacing=10;dashPattern=8 4;metaEdit=1;rotatable=0;perimeter=rectanglePerimeter;noLabel=0;labelPadding=0;allowArrows=0;connectable=0;expand=0;recursiveResize=0;editable=1;pointerEvents=0;absoluteArcSize=1;points=[[0.25,0,0],[0.5,0,0],[0.75,0,0],[1,0.25,0],[1,0.5,0],[1,0.75,0],[0.75,1,0],[0.5,1,0],[0.25,1,0],[0,0.75,0],[0,0.5,0],[0,0.25,0]];" vertex="1" parent="1">
            <mxGeometry x="-440" y="860" width="1000" height="660" as="geometry" />
          </mxCell>
        </object>
        <object placeholders="1" c4Name="Users" c4Type="SystemScopeBoundary" c4Application="Software System" label="&lt;font style=&quot;font-size: 16px&quot;&gt;&lt;b&gt;&lt;div style=&quot;text-align: left&quot;&gt;%c4Name%&lt;/div&gt;&lt;/b&gt;&lt;/font&gt;&lt;div style=&quot;text-align: left&quot;&gt;[%c4Application%]&lt;/div&gt;" id="8P7EJQTEe8MfBTLbJezU-4">
          <mxCell style="rounded=1;fontSize=11;whiteSpace=wrap;html=1;dashed=1;arcSize=20;fillColor=none;strokeColor=#666666;fontColor=#333333;labelBackgroundColor=none;align=left;verticalAlign=bottom;labelBorderColor=none;spacingTop=0;spacing=10;dashPattern=8 4;metaEdit=1;rotatable=0;perimeter=rectanglePerimeter;noLabel=0;labelPadding=0;allowArrows=0;connectable=0;expand=0;recursiveResize=0;editable=1;pointerEvents=0;absoluteArcSize=1;points=[[0.25,0,0],[0.5,0,0],[0.75,0,0],[1,0.25,0],[1,0.5,0],[1,0.75,0],[0.75,1,0],[0.5,1,0],[0.25,1,0],[0,0.75,0],[0,0.5,0],[0,0.25,0]];" vertex="1" parent="1">
            <mxGeometry x="600" y="140" width="1000" height="420" as="geometry" />
          </mxCell>
        </object>
        <object placeholders="1" c4Name="Analytics" c4Type="SystemScopeBoundary" c4Application="Software System" label="&lt;font style=&quot;font-size: 16px&quot;&gt;&lt;b&gt;&lt;div style=&quot;text-align: left&quot;&gt;%c4Name%&lt;/div&gt;&lt;/b&gt;&lt;/font&gt;&lt;div style=&quot;text-align: left&quot;&gt;[%c4Application%]&lt;/div&gt;" id="8P7EJQTEe8MfBTLbJezU-5">
          <mxCell style="rounded=1;fontSize=11;whiteSpace=wrap;html=1;dashed=1;arcSize=20;fillColor=none;strokeColor=#666666;fontColor=#333333;labelBackgroundColor=none;align=left;verticalAlign=bottom;labelBorderColor=none;spacingTop=0;spacing=10;dashPattern=8 4;metaEdit=1;rotatable=0;perimeter=rectanglePerimeter;noLabel=0;labelPadding=0;allowArrows=0;connectable=0;expand=0;recursiveResize=0;editable=1;pointerEvents=0;absoluteArcSize=1;points=[[0.25,0,0],[0.5,0,0],[0.75,0,0],[1,0.25,0],[1,0.5,0],[1,0.75,0],[0.75,1,0],[0.5,1,0],[0.25,1,0],[0,0.75,0],[0,0.5,0],[0,0.25,0]];" vertex="1" parent="1">
            <mxGeometry x="580" y="860" width="1020" height="650" as="geometry" />
          </mxCell>
        </object>
        <object placeholders="1" c4Name="Integration" c4Type="SystemScopeBoundary" c4Application="Software System" label="&lt;font style=&quot;font-size: 16px&quot;&gt;&lt;b&gt;&lt;div style=&quot;text-align: left&quot;&gt;%c4Name%&lt;/div&gt;&lt;/b&gt;&lt;/font&gt;&lt;div style=&quot;text-align: left&quot;&gt;[%c4Application%]&lt;/div&gt;" id="8P7EJQTEe8MfBTLbJezU-6">
          <mxCell style="rounded=1;fontSize=11;whiteSpace=wrap;html=1;dashed=1;arcSize=20;fillColor=none;strokeColor=#666666;fontColor=#333333;labelBackgroundColor=none;align=left;verticalAlign=bottom;labelBorderColor=none;spacingTop=0;spacing=10;dashPattern=8 4;metaEdit=1;rotatable=0;perimeter=rectanglePerimeter;noLabel=0;labelPadding=0;allowArrows=0;connectable=0;expand=0;recursiveResize=0;editable=1;pointerEvents=0;absoluteArcSize=1;points=[[0.25,0,0],[0.5,0,0],[0.75,0,0],[1,0.25,0],[1,0.5,0],[1,0.75,0],[0.75,1,0],[0.5,1,0],[0.25,1,0],[0,0.75,0],[0,0.5,0],[0,0.25,0]];" vertex="1" parent="1">
            <mxGeometry x="-440" y="580" width="1240" height="260" as="geometry" />
          </mxCell>
        </object>
        <mxCell id="8P7EJQTEe8MfBTLbJezU-14" style="edgeStyle=orthogonalEdgeStyle;rounded=1;orthogonalLoop=1;jettySize=auto;html=1;curved=0;" edge="1" parent="1" source="8P7EJQTEe8MfBTLbJezU-7" target="8P7EJQTEe8MfBTLbJezU-8">
          <mxGeometry relative="1" as="geometry">
            <Array as="points">
              <mxPoint x="760" y="240" />
            </Array>
          </mxGeometry>
        </mxCell>
        <mxCell id="8P7EJQTEe8MfBTLbJezU-15" value="JWT" style="edgeLabel;html=1;align=center;verticalAlign=middle;resizable=0;points=[];" vertex="1" connectable="0" parent="8P7EJQTEe8MfBTLbJezU-14">
          <mxGeometry x="-0.0111" relative="1" as="geometry">
            <mxPoint x="71" as="offset" />
          </mxGeometry>
        </mxCell>
        <object placeholders="1" c4Name="Identity &amp; Auth Service" c4Type="Container" c4Technology="Keycloak/OAuth2, OpenID Connect" c4Description="Централизованная аутентификация и авторизация для всех сервисов компании." label="&lt;font style=&quot;font-size: 16px&quot;&gt;&lt;b&gt;%c4Name%&lt;/b&gt;&lt;/font&gt;&lt;div&gt;[%c4Type%: %c4Technology%]&lt;/div&gt;&lt;br&gt;&lt;div&gt;&lt;font style=&quot;font-size: 11px&quot;&gt;&lt;font color=&quot;#E6E6E6&quot;&gt;%c4Description%&lt;/font&gt;&lt;/div&gt;" id="8P7EJQTEe8MfBTLbJezU-7">
          <mxCell style="rounded=1;whiteSpace=wrap;html=1;fontSize=11;labelBackgroundColor=none;fillColor=#23A2D9;fontColor=#ffffff;align=center;arcSize=10;strokeColor=#0E7DAD;metaEdit=1;resizable=0;points=[[0.25,0,0],[0.5,0,0],[0.75,0,0],[1,0.25,0],[1,0.5,0],[1,0.75,0],[0.75,1,0],[0.5,1,0],[0.25,1,0],[0,0.75,0],[0,0.5,0],[0,0.25,0]];" vertex="1" parent="1">
            <mxGeometry x="640" y="360" width="240" height="120" as="geometry" />
          </mxCell>
        </object>
        <mxCell id="8P7EJQTEe8MfBTLbJezU-16" style="edgeStyle=orthogonalEdgeStyle;rounded=0;orthogonalLoop=1;jettySize=auto;html=1;" edge="1" parent="1" source="8P7EJQTEe8MfBTLbJezU-8" target="8P7EJQTEe8MfBTLbJezU-9">
          <mxGeometry relative="1" as="geometry" />
        </mxCell>
        <mxCell id="8P7EJQTEe8MfBTLbJezU-17" value="Проверка&lt;div&gt;прав&lt;/div&gt;" style="edgeLabel;html=1;align=center;verticalAlign=middle;resizable=0;points=[];" vertex="1" connectable="0" parent="8P7EJQTEe8MfBTLbJezU-16">
          <mxGeometry x="0.0722" y="3" relative="1" as="geometry">
            <mxPoint x="-3" y="-3" as="offset" />
          </mxGeometry>
        </mxCell>
        <mxCell id="8P7EJQTEe8MfBTLbJezU-24" style="edgeStyle=orthogonalEdgeStyle;rounded=0;orthogonalLoop=1;jettySize=auto;html=1;" edge="1" parent="1" source="8P7EJQTEe8MfBTLbJezU-8" target="8P7EJQTEe8MfBTLbJezU-13">
          <mxGeometry relative="1" as="geometry" />
        </mxCell>
        <mxCell id="8P7EJQTEe8MfBTLbJezU-25" value="Триггеры уведомлений" style="edgeLabel;html=1;align=center;verticalAlign=middle;resizable=0;points=[];" vertex="1" connectable="0" parent="8P7EJQTEe8MfBTLbJezU-24">
          <mxGeometry x="-0.0028" y="2" relative="1" as="geometry">
            <mxPoint as="offset" />
          </mxGeometry>
        </mxCell>
        <object placeholders="1" c4Name="User Profile Service" c4Type="Container" c4Technology="PostgreSQL, GraphQL API" c4Description="Хранение и управление профилями клиентов и сотрудников." label="&lt;font style=&quot;font-size: 16px&quot;&gt;&lt;b&gt;%c4Name%&lt;/b&gt;&lt;/font&gt;&lt;div&gt;[%c4Type%: %c4Technology%]&lt;/div&gt;&lt;br&gt;&lt;div&gt;&lt;font style=&quot;font-size: 11px&quot;&gt;&lt;font color=&quot;#E6E6E6&quot;&gt;%c4Description%&lt;/font&gt;&lt;/div&gt;" id="8P7EJQTEe8MfBTLbJezU-8">
          <mxCell style="rounded=1;whiteSpace=wrap;html=1;fontSize=11;labelBackgroundColor=none;fillColor=#23A2D9;fontColor=#ffffff;align=center;arcSize=10;strokeColor=#0E7DAD;metaEdit=1;resizable=0;points=[[0.25,0,0],[0.5,0,0],[0.75,0,0],[1,0.25,0],[1,0.5,0],[1,0.75,0],[0.75,1,0],[0.5,1,0],[0.25,1,0],[0,0.75,0],[0,0.5,0],[0,0.25,0]];" vertex="1" parent="1">
            <mxGeometry x="960" y="180" width="240" height="120" as="geometry" />
          </mxCell>
        </object>
        <mxCell id="8P7EJQTEe8MfBTLbJezU-20" style="edgeStyle=orthogonalEdgeStyle;rounded=0;orthogonalLoop=1;jettySize=auto;html=1;" edge="1" parent="1" source="8P7EJQTEe8MfBTLbJezU-9" target="8P7EJQTEe8MfBTLbJezU-12">
          <mxGeometry relative="1" as="geometry" />
        </mxCell>
        <mxCell id="8P7EJQTEe8MfBTLbJezU-21" value="Логирование доступа" style="edgeLabel;html=1;align=center;verticalAlign=middle;resizable=0;points=[];" vertex="1" connectable="0" parent="8P7EJQTEe8MfBTLbJezU-20">
          <mxGeometry x="0.0222" relative="1" as="geometry">
            <mxPoint as="offset" />
          </mxGeometry>
        </mxCell>
        <object placeholders="1" c4Name="Access Control Service" c4Type="Container" c4Technology="RBAC-модель, Java/Spring" c4Description="Управление ролями и правами доступа к данным и сервисам" label="&lt;font style=&quot;font-size: 16px&quot;&gt;&lt;b&gt;%c4Name%&lt;/b&gt;&lt;/font&gt;&lt;div&gt;[%c4Type%: %c4Technology%]&lt;/div&gt;&lt;br&gt;&lt;div&gt;&lt;font style=&quot;font-size: 11px&quot;&gt;&lt;font color=&quot;#E6E6E6&quot;&gt;%c4Description%&lt;/font&gt;&lt;/div&gt;" id="8P7EJQTEe8MfBTLbJezU-9">
          <mxCell style="rounded=1;whiteSpace=wrap;html=1;fontSize=11;labelBackgroundColor=none;fillColor=#23A2D9;fontColor=#ffffff;align=center;arcSize=10;strokeColor=#0E7DAD;metaEdit=1;resizable=0;points=[[0.25,0,0],[0.5,0,0],[0.75,0,0],[1,0.25,0],[1,0.5,0],[1,0.75,0],[0.75,1,0],[0.5,1,0],[0.25,1,0],[0,0.75,0],[0,0.5,0],[0,0.25,0]];" vertex="1" parent="1">
            <mxGeometry x="1320" y="180" width="240" height="120" as="geometry" />
          </mxCell>
        </object>
        <object placeholders="1" c4Name="Audit Log Service" c4Type="Container" c4Technology="Elasticsearch, Kafka" c4Description="Логирование действий пользователей (для compliance и безопасности)." label="&lt;font style=&quot;font-size: 16px&quot;&gt;&lt;b&gt;%c4Name%&lt;/b&gt;&lt;/font&gt;&lt;div&gt;[%c4Type%: %c4Technology%]&lt;/div&gt;&lt;br&gt;&lt;div&gt;&lt;font style=&quot;font-size: 11px&quot;&gt;&lt;font color=&quot;#E6E6E6&quot;&gt;%c4Description%&lt;/font&gt;&lt;/div&gt;" id="8P7EJQTEe8MfBTLbJezU-12">
          <mxCell style="rounded=1;whiteSpace=wrap;html=1;fontSize=11;labelBackgroundColor=none;fillColor=#23A2D9;fontColor=#ffffff;align=center;arcSize=10;strokeColor=#0E7DAD;metaEdit=1;resizable=0;points=[[0.25,0,0],[0.5,0,0],[0.75,0,0],[1,0.25,0],[1,0.5,0],[1,0.75,0],[0.75,1,0],[0.5,1,0],[0.25,1,0],[0,0.75,0],[0,0.5,0],[0,0.25,0]];" vertex="1" parent="1">
            <mxGeometry x="1320" y="360" width="240" height="120" as="geometry" />
          </mxCell>
        </object>
        <mxCell id="8P7EJQTEe8MfBTLbJezU-22" style="edgeStyle=orthogonalEdgeStyle;rounded=0;orthogonalLoop=1;jettySize=auto;html=1;" edge="1" parent="1" source="8P7EJQTEe8MfBTLbJezU-13" target="8P7EJQTEe8MfBTLbJezU-12">
          <mxGeometry relative="1" as="geometry" />
        </mxCell>
        <mxCell id="8P7EJQTEe8MfBTLbJezU-23" value="Логирование&lt;div&gt;отправки&lt;/div&gt;" style="edgeLabel;html=1;align=center;verticalAlign=middle;resizable=0;points=[];" vertex="1" connectable="0" parent="8P7EJQTEe8MfBTLbJezU-22">
          <mxGeometry x="-0.3111" relative="1" as="geometry">
            <mxPoint x="12" as="offset" />
          </mxGeometry>
        </mxCell>
        <object placeholders="1" c4Name="Notification Service" c4Type="Container" c4Technology="RabbitMQ, Node.js" c4Description="Рассылка уведомлений (email, SMS) о событиях (регистрация, доступы и т.д.).&#xa;" label="&lt;font style=&quot;font-size: 16px&quot;&gt;&lt;b&gt;%c4Name%&lt;/b&gt;&lt;/font&gt;&lt;div&gt;[%c4Type%: %c4Technology%]&lt;/div&gt;&lt;br&gt;&lt;div&gt;&lt;font style=&quot;font-size: 11px&quot;&gt;&lt;font color=&quot;#E6E6E6&quot;&gt;%c4Description%&lt;/font&gt;&lt;/div&gt;" id="8P7EJQTEe8MfBTLbJezU-13">
          <mxCell style="rounded=1;whiteSpace=wrap;html=1;fontSize=11;labelBackgroundColor=none;fillColor=#23A2D9;fontColor=#ffffff;align=center;arcSize=10;strokeColor=#0E7DAD;metaEdit=1;resizable=0;points=[[0.25,0,0],[0.5,0,0],[0.75,0,0],[1,0.25,0],[1,0.5,0],[1,0.75,0],[0.75,1,0],[0.5,1,0],[0.25,1,0],[0,0.75,0],[0,0.5,0],[0,0.25,0]];" vertex="1" parent="1">
            <mxGeometry x="960" y="360" width="240" height="120" as="geometry" />
          </mxCell>
        </object>
        <mxCell id="8P7EJQTEe8MfBTLbJezU-39" style="edgeStyle=orthogonalEdgeStyle;rounded=1;orthogonalLoop=1;jettySize=auto;html=1;curved=0;" edge="1" parent="1" source="8P7EJQTEe8MfBTLbJezU-26" target="8P7EJQTEe8MfBTLbJezU-32">
          <mxGeometry relative="1" as="geometry">
            <Array as="points">
              <mxPoint x="310" y="240" />
            </Array>
          </mxGeometry>
        </mxCell>
        <mxCell id="8P7EJQTEe8MfBTLbJezU-62" value="Кредитные&lt;div&gt;операции&lt;/div&gt;&lt;div&gt;[gRPC]&lt;/div&gt;" style="edgeLabel;html=1;align=center;verticalAlign=middle;resizable=0;points=[];" vertex="1" connectable="0" parent="8P7EJQTEe8MfBTLbJezU-39">
          <mxGeometry x="-0.1965" y="1" relative="1" as="geometry">
            <mxPoint x="1" y="16" as="offset" />
          </mxGeometry>
        </mxCell>
        <mxCell id="8P7EJQTEe8MfBTLbJezU-40" style="edgeStyle=orthogonalEdgeStyle;rounded=1;orthogonalLoop=1;jettySize=auto;html=1;curved=0;" edge="1" parent="1" source="8P7EJQTEe8MfBTLbJezU-26" target="8P7EJQTEe8MfBTLbJezU-31">
          <mxGeometry relative="1" as="geometry">
            <Array as="points">
              <mxPoint x="140" y="440" />
              <mxPoint x="140" y="440" />
            </Array>
          </mxGeometry>
        </mxCell>
        <mxCell id="8P7EJQTEe8MfBTLbJezU-61" value="Платежи [gRPC]" style="edgeLabel;html=1;align=center;verticalAlign=middle;resizable=0;points=[];" vertex="1" connectable="0" parent="8P7EJQTEe8MfBTLbJezU-40">
          <mxGeometry x="0.1366" y="3" relative="1" as="geometry">
            <mxPoint x="124" as="offset" />
          </mxGeometry>
        </mxCell>
        <mxCell id="8P7EJQTEe8MfBTLbJezU-41" style="edgeStyle=orthogonalEdgeStyle;rounded=1;orthogonalLoop=1;jettySize=auto;html=1;curved=0;" edge="1" parent="1" source="8P7EJQTEe8MfBTLbJezU-26" target="8P7EJQTEe8MfBTLbJezU-33">
          <mxGeometry relative="1" as="geometry">
            <Array as="points">
              <mxPoint x="-20" y="400" />
              <mxPoint x="-20" y="240" />
            </Array>
          </mxGeometry>
        </mxCell>
        <mxCell id="8P7EJQTEe8MfBTLbJezU-60" value="Запросы по счетам [gRPC]" style="edgeLabel;html=1;align=center;verticalAlign=middle;resizable=0;points=[];" vertex="1" connectable="0" parent="8P7EJQTEe8MfBTLbJezU-41">
          <mxGeometry x="-0.1417" y="-3" relative="1" as="geometry">
            <mxPoint x="134" as="offset" />
          </mxGeometry>
        </mxCell>
        <mxCell id="8P7EJQTEe8MfBTLbJezU-48" style="edgeStyle=orthogonalEdgeStyle;rounded=1;orthogonalLoop=1;jettySize=auto;html=1;curved=0;" edge="1" parent="1" source="8P7EJQTEe8MfBTLbJezU-26" target="8P7EJQTEe8MfBTLbJezU-7">
          <mxGeometry relative="1" as="geometry">
            <mxPoint x="530" y="680" as="targetPoint" />
            <Array as="points">
              <mxPoint x="630" y="420" />
              <mxPoint x="630" y="420" />
            </Array>
          </mxGeometry>
        </mxCell>
        <object placeholders="1" c4Name="Fintech Api-Gateway" c4Type="Container" c4Technology="Kong" c4Description="Роутинг, аутентификация, кэширование" label="&lt;font style=&quot;font-size: 16px&quot;&gt;&lt;b&gt;%c4Name%&lt;/b&gt;&lt;/font&gt;&lt;div&gt;[%c4Type%: %c4Technology%]&lt;/div&gt;&lt;br&gt;&lt;div&gt;&lt;font style=&quot;font-size: 11px&quot;&gt;&lt;font color=&quot;#E6E6E6&quot;&gt;%c4Description%&lt;/font&gt;&lt;/div&gt;" id="8P7EJQTEe8MfBTLbJezU-26">
          <mxCell style="rounded=1;whiteSpace=wrap;html=1;fontSize=11;labelBackgroundColor=none;fillColor=#23A2D9;fontColor=#ffffff;align=center;arcSize=10;strokeColor=#0E7DAD;metaEdit=1;resizable=0;points=[[0.25,0,0],[0.5,0,0],[0.75,0,0],[1,0.25,0],[1,0.5,0],[1,0.75,0],[0.75,1,0],[0.5,1,0],[0.25,1,0],[0,0.75,0],[0,0.5,0],[0,0.25,0]];" vertex="1" parent="1">
            <mxGeometry x="280" y="360" width="240" height="120" as="geometry" />
          </mxCell>
        </object>
        <mxCell id="8P7EJQTEe8MfBTLbJezU-30" style="edgeStyle=orthogonalEdgeStyle;rounded=1;orthogonalLoop=1;jettySize=auto;html=1;curved=0;" edge="1" parent="1" source="8P7EJQTEe8MfBTLbJezU-29" target="8P7EJQTEe8MfBTLbJezU-26">
          <mxGeometry relative="1" as="geometry">
            <Array as="points">
              <mxPoint x="120" y="160" />
              <mxPoint x="360" y="160" />
            </Array>
          </mxGeometry>
        </mxCell>
        <mxCell id="8P7EJQTEe8MfBTLbJezU-59" value="Api calls&lt;br&gt;[REST/JSON]" style="edgeLabel;html=1;align=center;verticalAlign=middle;resizable=0;points=[];" vertex="1" connectable="0" parent="8P7EJQTEe8MfBTLbJezU-30">
          <mxGeometry x="0.4573" y="4" relative="1" as="geometry">
            <mxPoint y="-20" as="offset" />
          </mxGeometry>
        </mxCell>
        <object placeholders="1" c4Name="Web app" c4Type="Container" c4Technology="Golang/Java" c4Description="Фронтенд для клиентов и операторов" label="&lt;font style=&quot;font-size: 16px&quot;&gt;&lt;b&gt;%c4Name%&lt;/b&gt;&lt;/font&gt;&lt;div&gt;[%c4Type%: %c4Technology%]&lt;/div&gt;&lt;br&gt;&lt;div&gt;&lt;font style=&quot;font-size: 11px&quot;&gt;&lt;font color=&quot;#E6E6E6&quot;&gt;%c4Description%&lt;/font&gt;&lt;/div&gt;" id="8P7EJQTEe8MfBTLbJezU-29">
          <mxCell style="rounded=1;whiteSpace=wrap;html=1;fontSize=11;labelBackgroundColor=none;fillColor=#23A2D9;fontColor=#ffffff;align=center;arcSize=10;strokeColor=#0E7DAD;metaEdit=1;resizable=0;points=[[0.25,0,0],[0.5,0,0],[0.75,0,0],[1,0.25,0],[1,0.5,0],[1,0.75,0],[0.75,1,0],[0.5,1,0],[0.25,1,0],[0,0.75,0],[0,0.5,0],[0,0.25,0]];" vertex="1" parent="1">
            <mxGeometry x="20" width="240" height="120" as="geometry" />
          </mxCell>
        </object>
        <object placeholders="1" c4Name="Payment Service" c4Type="Container" c4Technology="Java, Spring Boot" c4Description="Обработка транзакций" label="&lt;font style=&quot;font-size: 16px&quot;&gt;&lt;b&gt;%c4Name%&lt;/b&gt;&lt;/font&gt;&lt;div&gt;[%c4Type%: %c4Technology%]&lt;/div&gt;&lt;br&gt;&lt;div&gt;&lt;font style=&quot;font-size: 11px&quot;&gt;&lt;font color=&quot;#E6E6E6&quot;&gt;%c4Description%&lt;/font&gt;&lt;/div&gt;" id="8P7EJQTEe8MfBTLbJezU-31">
          <mxCell style="rounded=1;whiteSpace=wrap;html=1;fontSize=11;labelBackgroundColor=none;fillColor=#23A2D9;fontColor=#ffffff;align=center;arcSize=10;strokeColor=#0E7DAD;metaEdit=1;resizable=0;points=[[0.25,0,0],[0.5,0,0],[0.75,0,0],[1,0.25,0],[1,0.5,0],[1,0.75,0],[0.75,1,0],[0.5,1,0],[0.25,1,0],[0,0.75,0],[0,0.5,0],[0,0.25,0]];" vertex="1" parent="1">
            <mxGeometry x="-320" y="360" width="240" height="120" as="geometry" />
          </mxCell>
        </object>
        <mxCell id="8P7EJQTEe8MfBTLbJezU-46" style="edgeStyle=orthogonalEdgeStyle;rounded=1;orthogonalLoop=1;jettySize=auto;html=1;curved=0;" edge="1" parent="1" source="8P7EJQTEe8MfBTLbJezU-32" target="8P7EJQTEe8MfBTLbJezU-35">
          <mxGeometry relative="1" as="geometry">
            <Array as="points">
              <mxPoint x="-40" y="220" />
              <mxPoint x="-40" y="60" />
            </Array>
          </mxGeometry>
        </mxCell>
        <mxCell id="8P7EJQTEe8MfBTLbJezU-64" value="Чтение/Запись&lt;div&gt;данных&lt;/div&gt;" style="edgeLabel;html=1;align=center;verticalAlign=middle;resizable=0;points=[];" vertex="1" connectable="0" parent="8P7EJQTEe8MfBTLbJezU-46">
          <mxGeometry x="0.0889" y="-2" relative="1" as="geometry">
            <mxPoint y="21" as="offset" />
          </mxGeometry>
        </mxCell>
        <mxCell id="8P7EJQTEe8MfBTLbJezU-69" style="edgeStyle=orthogonalEdgeStyle;rounded=1;orthogonalLoop=1;jettySize=auto;html=1;curved=0;startArrow=classic;startFill=1;" edge="1" parent="1" source="8P7EJQTEe8MfBTLbJezU-32" target="8P7EJQTEe8MfBTLbJezU-36">
          <mxGeometry relative="1" as="geometry">
            <Array as="points">
              <mxPoint x="60" y="610" />
              <mxPoint x="240" y="610" />
            </Array>
          </mxGeometry>
        </mxCell>
        <mxCell id="8P7EJQTEe8MfBTLbJezU-72" value="Topic: fintech.loans" style="edgeLabel;html=1;align=center;verticalAlign=middle;resizable=0;points=[];" vertex="1" connectable="0" parent="8P7EJQTEe8MfBTLbJezU-69">
          <mxGeometry x="0.3437" y="-1" relative="1" as="geometry">
            <mxPoint x="-6" y="-61" as="offset" />
          </mxGeometry>
        </mxCell>
        <object placeholders="1" c4Name="Loan Service" c4Type="Container" c4Technology="Golang" c4Description="Оформление и управление кредитами" label="&lt;font style=&quot;font-size: 16px&quot;&gt;&lt;b&gt;%c4Name%&lt;/b&gt;&lt;/font&gt;&lt;div&gt;[%c4Type%: %c4Technology%]&lt;/div&gt;&lt;br&gt;&lt;div&gt;&lt;font style=&quot;font-size: 11px&quot;&gt;&lt;font color=&quot;#E6E6E6&quot;&gt;%c4Description%&lt;/font&gt;&lt;/div&gt;" id="8P7EJQTEe8MfBTLbJezU-32">
          <mxCell style="rounded=1;whiteSpace=wrap;html=1;fontSize=11;labelBackgroundColor=none;fillColor=#23A2D9;fontColor=#ffffff;align=center;arcSize=10;strokeColor=#0E7DAD;metaEdit=1;resizable=0;points=[[0.25,0,0],[0.5,0,0],[0.75,0,0],[1,0.25,0],[1,0.5,0],[1,0.75,0],[0.75,1,0],[0.5,1,0],[0.25,1,0],[0,0.75,0],[0,0.5,0],[0,0.25,0]];" vertex="1" parent="1">
            <mxGeometry x="20" y="200" width="240" height="120" as="geometry" />
          </mxCell>
        </object>
        <mxCell id="8P7EJQTEe8MfBTLbJezU-45" style="edgeStyle=orthogonalEdgeStyle;rounded=1;orthogonalLoop=1;jettySize=auto;html=1;curved=0;" edge="1" parent="1" source="8P7EJQTEe8MfBTLbJezU-33" target="8P7EJQTEe8MfBTLbJezU-35">
          <mxGeometry relative="1" as="geometry" />
        </mxCell>
        <mxCell id="8P7EJQTEe8MfBTLbJezU-65" value="Чтение/Запись&lt;div&gt;данных&lt;/div&gt;&lt;div&gt;[JBDC]&lt;/div&gt;" style="edgeLabel;html=1;align=center;verticalAlign=middle;resizable=0;points=[];" vertex="1" connectable="0" parent="8P7EJQTEe8MfBTLbJezU-45">
          <mxGeometry x="-0.3083" y="-4" relative="1" as="geometry">
            <mxPoint as="offset" />
          </mxGeometry>
        </mxCell>
        <mxCell id="8P7EJQTEe8MfBTLbJezU-68" style="edgeStyle=orthogonalEdgeStyle;rounded=1;orthogonalLoop=1;jettySize=auto;html=1;curved=0;startArrow=classic;startFill=1;" edge="1" parent="1" source="8P7EJQTEe8MfBTLbJezU-33" target="8P7EJQTEe8MfBTLbJezU-36">
          <mxGeometry relative="1" as="geometry">
            <Array as="points">
              <mxPoint x="-50" y="260" />
              <mxPoint x="-50" y="610" />
              <mxPoint x="240" y="610" />
            </Array>
          </mxGeometry>
        </mxCell>
        <object placeholders="1" c4Name="Account Service" c4Type="Container" c4Technology="Java, Spring Boot" c4Description="Управление счетами и балансами" label="&lt;font style=&quot;font-size: 16px&quot;&gt;&lt;b&gt;%c4Name%&lt;/b&gt;&lt;/font&gt;&lt;div&gt;[%c4Type%: %c4Technology%]&lt;/div&gt;&lt;br&gt;&lt;div&gt;&lt;font style=&quot;font-size: 11px&quot;&gt;&lt;font color=&quot;#E6E6E6&quot;&gt;%c4Description%&lt;/font&gt;&lt;/div&gt;" id="8P7EJQTEe8MfBTLbJezU-33">
          <mxCell style="rounded=1;whiteSpace=wrap;html=1;fontSize=11;labelBackgroundColor=none;fillColor=#23A2D9;fontColor=#ffffff;align=center;arcSize=10;strokeColor=#0E7DAD;metaEdit=1;resizable=0;points=[[0.25,0,0],[0.5,0,0],[0.75,0,0],[1,0.25,0],[1,0.5,0],[1,0.75,0],[0.75,1,0],[0.5,1,0],[0.25,1,0],[0,0.75,0],[0,0.5,0],[0,0.25,0]];" vertex="1" parent="1">
            <mxGeometry x="-320" y="200" width="240" height="120" as="geometry" />
          </mxCell>
        </object>
        <mxCell id="8P7EJQTEe8MfBTLbJezU-37" style="edgeStyle=orthogonalEdgeStyle;rounded=1;orthogonalLoop=1;jettySize=auto;html=1;curved=0;" edge="1" parent="1" source="8P7EJQTEe8MfBTLbJezU-34" target="8P7EJQTEe8MfBTLbJezU-26">
          <mxGeometry relative="1" as="geometry">
            <Array as="points">
              <mxPoint x="430" y="230" />
              <mxPoint x="430" y="230" />
            </Array>
          </mxGeometry>
        </mxCell>
        <mxCell id="8P7EJQTEe8MfBTLbJezU-58" value="Api calls&lt;div&gt;[REST/JSON]&lt;/div&gt;" style="edgeLabel;html=1;align=center;verticalAlign=middle;resizable=0;points=[];" vertex="1" connectable="0" parent="8P7EJQTEe8MfBTLbJezU-37">
          <mxGeometry x="-0.1093" y="-2" relative="1" as="geometry">
            <mxPoint x="-8" y="13" as="offset" />
          </mxGeometry>
        </mxCell>
        <object placeholders="1" c4Name="Mobile app" c4Type="Container" c4Technology="Kotlin/Swift" c4Description="Мобильное приложение" label="&lt;font style=&quot;font-size: 16px&quot;&gt;&lt;b&gt;%c4Name%&lt;/b&gt;&lt;/font&gt;&lt;div&gt;[%c4Type%: %c4Technology%]&lt;/div&gt;&lt;br&gt;&lt;div&gt;&lt;font style=&quot;font-size: 11px&quot;&gt;&lt;font color=&quot;#E6E6E6&quot;&gt;%c4Description%&lt;/font&gt;&lt;/div&gt;" id="8P7EJQTEe8MfBTLbJezU-34">
          <mxCell style="rounded=1;whiteSpace=wrap;html=1;fontSize=11;labelBackgroundColor=none;fillColor=#23A2D9;fontColor=#ffffff;align=center;arcSize=10;strokeColor=#0E7DAD;metaEdit=1;resizable=0;points=[[0.25,0,0],[0.5,0,0],[0.75,0,0],[1,0.25,0],[1,0.5,0],[1,0.75,0],[0.75,1,0],[0.5,1,0],[0.25,1,0],[0,0.75,0],[0,0.5,0],[0,0.25,0]];" vertex="1" parent="1">
            <mxGeometry x="300" width="240" height="120" as="geometry" />
          </mxCell>
        </object>
        <object placeholders="1" c4Name="FinTech Db" c4Type="Container" c4Technology="PostgreSQL" c4Description="Хранение финансовых данных: счета, транзакции, кредиты" label="&lt;font style=&quot;font-size: 16px&quot;&gt;&lt;b&gt;%c4Name%&lt;/b&gt;&lt;/font&gt;&lt;div&gt;[%c4Type%:&amp;nbsp;%c4Technology%]&lt;/div&gt;&lt;br&gt;&lt;div&gt;&lt;font style=&quot;font-size: 11px&quot;&gt;&lt;font color=&quot;#E6E6E6&quot;&gt;%c4Description%&lt;/font&gt;&lt;/div&gt;" id="8P7EJQTEe8MfBTLbJezU-35">
          <mxCell style="shape=cylinder3;size=15;whiteSpace=wrap;html=1;boundedLbl=1;rounded=0;labelBackgroundColor=none;fillColor=#23A2D9;fontSize=12;fontColor=#ffffff;align=center;strokeColor=#0E7DAD;metaEdit=1;points=[[0.5,0,0],[1,0.25,0],[1,0.5,0],[1,0.75,0],[0.5,1,0],[0,0.75,0],[0,0.5,0],[0,0.25,0]];resizable=0;" vertex="1" parent="1">
            <mxGeometry x="-320" width="240" height="120" as="geometry" />
          </mxCell>
        </object>
        <mxCell id="8P7EJQTEe8MfBTLbJezU-192" style="edgeStyle=orthogonalEdgeStyle;rounded=1;orthogonalLoop=1;jettySize=auto;html=1;curved=0;" edge="1" parent="1" source="8P7EJQTEe8MfBTLbJezU-36" target="8P7EJQTEe8MfBTLbJezU-185">
          <mxGeometry relative="1" as="geometry">
            <Array as="points">
              <mxPoint x="320" y="790" />
              <mxPoint x="1040" y="790" />
            </Array>
          </mxGeometry>
        </mxCell>
        <mxCell id="8P7EJQTEe8MfBTLbJezU-194" value="Данные" style="edgeLabel;html=1;align=center;verticalAlign=middle;resizable=0;points=[];" vertex="1" connectable="0" parent="8P7EJQTEe8MfBTLbJezU-192">
          <mxGeometry x="-0.0425" y="3" relative="1" as="geometry">
            <mxPoint x="243" y="3" as="offset" />
          </mxGeometry>
        </mxCell>
        <mxCell id="8P7EJQTEe8MfBTLbJezU-197" style="edgeStyle=orthogonalEdgeStyle;rounded=1;orthogonalLoop=1;jettySize=auto;html=1;curved=0;" edge="1" parent="1" source="8P7EJQTEe8MfBTLbJezU-36" target="8P7EJQTEe8MfBTLbJezU-184">
          <mxGeometry relative="1" as="geometry">
            <Array as="points">
              <mxPoint x="700" y="730" />
            </Array>
          </mxGeometry>
        </mxCell>
        <mxCell id="8P7EJQTEe8MfBTLbJezU-198" value="контракты" style="edgeLabel;html=1;align=center;verticalAlign=middle;resizable=0;points=[];fontFamily=Helvetica;fontSize=11;fontColor=default;labelBackgroundColor=default;" vertex="1" connectable="0" parent="8P7EJQTEe8MfBTLbJezU-197">
          <mxGeometry x="-0.5041" y="-5" relative="1" as="geometry">
            <mxPoint x="17" y="-5" as="offset" />
          </mxGeometry>
        </mxCell>
        <object placeholders="1" c4Name="Event Bus" c4Type="Container" c4Technology="Apache Kafka" c4Description="Общая шина для междоменного взаимодействия" label="&lt;font style=&quot;font-size: 16px&quot;&gt;&lt;b&gt;%c4Name%&lt;/b&gt;&lt;/font&gt;&lt;div&gt;[%c4Type%:&amp;nbsp;%c4Technology%]&lt;/div&gt;&lt;br&gt;&lt;div&gt;&lt;font style=&quot;font-size: 11px&quot;&gt;&lt;font color=&quot;#E6E6E6&quot;&gt;%c4Description%&lt;/font&gt;&lt;/div&gt;" id="8P7EJQTEe8MfBTLbJezU-36">
          <mxCell style="shape=cylinder3;size=15;direction=south;whiteSpace=wrap;html=1;boundedLbl=1;rounded=0;labelBackgroundColor=none;fillColor=#23A2D9;fontSize=12;fontColor=#ffffff;align=center;strokeColor=#0E7DAD;metaEdit=1;points=[[0.5,0,0],[1,0.25,0],[1,0.5,0],[1,0.75,0],[0.5,1,0],[0,0.75,0],[0,0.5,0],[0,0.25,0]];resizable=0;" vertex="1" parent="1">
            <mxGeometry x="170" y="640" width="240" height="120" as="geometry" />
          </mxCell>
        </object>
        <mxCell id="8P7EJQTEe8MfBTLbJezU-74" style="edgeStyle=orthogonalEdgeStyle;rounded=1;orthogonalLoop=1;jettySize=auto;html=1;curved=0;" edge="1" parent="1" source="8P7EJQTEe8MfBTLbJezU-43" target="8P7EJQTEe8MfBTLbJezU-7">
          <mxGeometry relative="1" as="geometry">
            <mxPoint x="530" y="720" as="targetPoint" />
            <Array as="points">
              <mxPoint x="600" y="980" />
              <mxPoint x="600" y="420" />
            </Array>
          </mxGeometry>
        </mxCell>
        <mxCell id="8P7EJQTEe8MfBTLbJezU-123" style="edgeStyle=orthogonalEdgeStyle;rounded=1;orthogonalLoop=1;jettySize=auto;html=1;curved=0;" edge="1" parent="1" source="8P7EJQTEe8MfBTLbJezU-43" target="8P7EJQTEe8MfBTLbJezU-76">
          <mxGeometry relative="1" as="geometry">
            <Array as="points">
              <mxPoint x="360" y="1080" />
              <mxPoint x="180" y="1080" />
            </Array>
          </mxGeometry>
        </mxCell>
        <mxCell id="8P7EJQTEe8MfBTLbJezU-219" value="операции" style="edgeLabel;html=1;align=center;verticalAlign=middle;resizable=0;points=[];fontFamily=Helvetica;fontSize=11;fontColor=default;labelBackgroundColor=default;" vertex="1" connectable="0" parent="8P7EJQTEe8MfBTLbJezU-123">
          <mxGeometry x="0.0139" y="-2" relative="1" as="geometry">
            <mxPoint as="offset" />
          </mxGeometry>
        </mxCell>
        <object placeholders="1" c4Name="Medical Api Gateway" c4Type="Container" c4Technology="Kong" c4Description="FHIR-совместимый интерфейс,&#xa;Роутинг, аутентификация, кэширование" label="&lt;font style=&quot;font-size: 16px&quot;&gt;&lt;b&gt;%c4Name%&lt;/b&gt;&lt;/font&gt;&lt;div&gt;[%c4Type%: %c4Technology%]&lt;/div&gt;&lt;br&gt;&lt;div&gt;&lt;font style=&quot;font-size: 11px&quot;&gt;&lt;font color=&quot;#E6E6E6&quot;&gt;%c4Description%&lt;/font&gt;&lt;/div&gt;" id="8P7EJQTEe8MfBTLbJezU-43">
          <mxCell style="rounded=1;whiteSpace=wrap;html=1;fontSize=11;labelBackgroundColor=none;fillColor=#23A2D9;fontColor=#ffffff;align=center;arcSize=10;strokeColor=#0E7DAD;metaEdit=1;resizable=0;points=[[0.25,0,0],[0.5,0,0],[0.75,0,0],[1,0.25,0],[1,0.5,0],[1,0.75,0],[0.75,1,0],[0.5,1,0],[0.25,1,0],[0,0.75,0],[0,0.5,0],[0,0.25,0]];" vertex="1" parent="1">
            <mxGeometry x="280" y="920" width="240" height="120" as="geometry" />
          </mxCell>
        </object>
        <mxCell id="8P7EJQTEe8MfBTLbJezU-44" style="edgeStyle=orthogonalEdgeStyle;rounded=1;orthogonalLoop=1;jettySize=auto;html=1;entryX=0;entryY=0.5;entryDx=0;entryDy=0;entryPerimeter=0;curved=0;" edge="1" parent="1" source="8P7EJQTEe8MfBTLbJezU-31" target="8P7EJQTEe8MfBTLbJezU-35">
          <mxGeometry relative="1" as="geometry">
            <Array as="points">
              <mxPoint x="-360" y="440" />
              <mxPoint x="-360" y="61" />
              <mxPoint x="-320" y="61" />
            </Array>
          </mxGeometry>
        </mxCell>
        <mxCell id="8P7EJQTEe8MfBTLbJezU-66" value="Чтение/Запись&lt;div&gt;данных&lt;/div&gt;&lt;div&gt;[JBDC]&lt;/div&gt;" style="edgeLabel;html=1;align=center;verticalAlign=middle;resizable=0;points=[];" vertex="1" connectable="0" parent="8P7EJQTEe8MfBTLbJezU-44">
          <mxGeometry x="0.3362" relative="1" as="geometry">
            <mxPoint as="offset" />
          </mxGeometry>
        </mxCell>
        <mxCell id="8P7EJQTEe8MfBTLbJezU-53" style="edgeStyle=orthogonalEdgeStyle;rounded=0;orthogonalLoop=1;jettySize=auto;html=1;" edge="1" parent="1" source="8P7EJQTEe8MfBTLbJezU-51" target="8P7EJQTEe8MfBTLbJezU-34">
          <mxGeometry relative="1" as="geometry">
            <Array as="points">
              <mxPoint x="450" y="-80" />
              <mxPoint x="450" y="-80" />
            </Array>
          </mxGeometry>
        </mxCell>
        <mxCell id="8P7EJQTEe8MfBTLbJezU-57" value="Мобильный банкинг [HTTPS]" style="edgeLabel;html=1;align=center;verticalAlign=middle;resizable=0;points=[];" vertex="1" connectable="0" parent="8P7EJQTEe8MfBTLbJezU-53">
          <mxGeometry x="0.5147" y="1" relative="1" as="geometry">
            <mxPoint as="offset" />
          </mxGeometry>
        </mxCell>
        <mxCell id="8P7EJQTEe8MfBTLbJezU-55" style="edgeStyle=orthogonalEdgeStyle;rounded=1;orthogonalLoop=1;jettySize=auto;html=1;curved=0;" edge="1" parent="1" source="8P7EJQTEe8MfBTLbJezU-51" target="8P7EJQTEe8MfBTLbJezU-29">
          <mxGeometry relative="1" as="geometry">
            <Array as="points">
              <mxPoint x="390" y="-60" />
              <mxPoint x="180" y="-60" />
            </Array>
          </mxGeometry>
        </mxCell>
        <mxCell id="8P7EJQTEe8MfBTLbJezU-56" value="Просмотр счетов,&amp;nbsp;&lt;div&gt;переводов&lt;/div&gt;&lt;div&gt;[HTTPS]&lt;/div&gt;" style="edgeLabel;html=1;align=center;verticalAlign=middle;resizable=0;points=[];" vertex="1" connectable="0" parent="8P7EJQTEe8MfBTLbJezU-55">
          <mxGeometry x="0.3023" y="-2" relative="1" as="geometry">
            <mxPoint x="51" as="offset" />
          </mxGeometry>
        </mxCell>
        <object placeholders="1" c4Name="Клиент" c4Type="Person" c4Description="" label="&lt;font style=&quot;font-size: 16px&quot;&gt;&lt;b&gt;%c4Name%&lt;/b&gt;&lt;/font&gt;&lt;div&gt;[%c4Type%]&lt;/div&gt;&lt;br&gt;&lt;div&gt;&lt;font style=&quot;font-size: 11px&quot;&gt;&lt;font color=&quot;#cccccc&quot;&gt;%c4Description%&lt;/font&gt;&lt;/div&gt;" id="8P7EJQTEe8MfBTLbJezU-51">
          <mxCell style="html=1;fontSize=11;dashed=0;whiteSpace=wrap;fillColor=#6C6477;strokeColor=#4D4D4D;fontColor=#ffffff;shape=mxgraph.c4.person2;align=center;metaEdit=1;points=[[0.5,0,0],[1,0.5,0],[1,0.75,0],[0.75,1,0],[0.5,1,0],[0.25,1,0],[0,0.75,0],[0,0.5,0]];resizable=0;" vertex="1" parent="1">
            <mxGeometry x="320" y="-340" width="200" height="180" as="geometry" />
          </mxCell>
        </object>
        <mxCell id="8P7EJQTEe8MfBTLbJezU-54" style="edgeStyle=orthogonalEdgeStyle;rounded=0;orthogonalLoop=1;jettySize=auto;html=1;" edge="1" parent="1" source="8P7EJQTEe8MfBTLbJezU-52" target="8P7EJQTEe8MfBTLbJezU-29">
          <mxGeometry relative="1" as="geometry" />
        </mxCell>
        <mxCell id="8P7EJQTEe8MfBTLbJezU-63" value="Управление операциями" style="edgeLabel;html=1;align=center;verticalAlign=middle;resizable=0;points=[];" vertex="1" connectable="0" parent="8P7EJQTEe8MfBTLbJezU-54">
          <mxGeometry x="-0.2208" y="-2" relative="1" as="geometry">
            <mxPoint as="offset" />
          </mxGeometry>
        </mxCell>
        <object placeholders="1" c4Name="Сотрудник банка" c4Type="Person" c4Description="" label="&lt;font style=&quot;font-size: 16px&quot;&gt;&lt;b&gt;%c4Name%&lt;/b&gt;&lt;/font&gt;&lt;div&gt;[%c4Type%]&lt;/div&gt;&lt;br&gt;&lt;div&gt;&lt;font style=&quot;font-size: 11px&quot;&gt;&lt;font color=&quot;#cccccc&quot;&gt;%c4Description%&lt;/font&gt;&lt;/div&gt;" id="8P7EJQTEe8MfBTLbJezU-52">
          <mxCell style="html=1;fontSize=11;dashed=0;whiteSpace=wrap;fillColor=#083F75;strokeColor=#06315C;fontColor=#ffffff;shape=mxgraph.c4.person2;align=center;metaEdit=1;points=[[0.5,0,0],[1,0.5,0],[1,0.75,0],[0.75,1,0],[0.5,1,0],[0.25,1,0],[0,0.75,0],[0,0.5,0]];resizable=0;" vertex="1" parent="1">
            <mxGeometry x="40" y="-340" width="200" height="180" as="geometry" />
          </mxCell>
        </object>
        <mxCell id="8P7EJQTEe8MfBTLbJezU-67" style="edgeStyle=orthogonalEdgeStyle;rounded=1;orthogonalLoop=1;jettySize=auto;html=1;curved=0;startArrow=classic;startFill=1;" edge="1" parent="1" source="8P7EJQTEe8MfBTLbJezU-31" target="8P7EJQTEe8MfBTLbJezU-36">
          <mxGeometry relative="1" as="geometry">
            <mxPoint x="-20" y="700" as="targetPoint" />
            <Array as="points">
              <mxPoint x="-200" y="610" />
              <mxPoint x="240" y="610" />
            </Array>
          </mxGeometry>
        </mxCell>
        <mxCell id="8P7EJQTEe8MfBTLbJezU-70" value="Topic: fintech.accounts" style="edgeLabel;html=1;align=center;verticalAlign=middle;resizable=0;points=[];" vertex="1" connectable="0" parent="8P7EJQTEe8MfBTLbJezU-67">
          <mxGeometry x="0.2875" y="-6" relative="1" as="geometry">
            <mxPoint x="-87" y="-66" as="offset" />
          </mxGeometry>
        </mxCell>
        <mxCell id="8P7EJQTEe8MfBTLbJezU-71" value="Topic: fintech.payments" style="edgeLabel;html=1;align=center;verticalAlign=middle;resizable=0;points=[];" vertex="1" connectable="0" parent="8P7EJQTEe8MfBTLbJezU-67">
          <mxGeometry x="-0.4448" y="2" relative="1" as="geometry">
            <mxPoint x="-12" y="-58" as="offset" />
          </mxGeometry>
        </mxCell>
        <mxCell id="8P7EJQTEe8MfBTLbJezU-122" style="edgeStyle=orthogonalEdgeStyle;rounded=0;orthogonalLoop=1;jettySize=auto;html=1;" edge="1" parent="1" source="8P7EJQTEe8MfBTLbJezU-73" target="8P7EJQTEe8MfBTLbJezU-43">
          <mxGeometry relative="1" as="geometry" />
        </mxCell>
        <mxCell id="8P7EJQTEe8MfBTLbJezU-218" value="Api calls&lt;div&gt;[REST/JSON]&lt;/div&gt;" style="edgeLabel;html=1;align=center;verticalAlign=middle;resizable=0;points=[];fontFamily=Helvetica;fontSize=11;fontColor=default;labelBackgroundColor=default;" vertex="1" connectable="0" parent="8P7EJQTEe8MfBTLbJezU-122">
          <mxGeometry x="-0.3241" y="-2" relative="1" as="geometry">
            <mxPoint as="offset" />
          </mxGeometry>
        </mxCell>
        <object placeholders="1" c4Name="Web app" c4Type="Container" c4Technology="React/Angular" c4Description="Предоставляет интерфейс для врачей и операторов клиник" label="&lt;font style=&quot;font-size: 16px&quot;&gt;&lt;b&gt;%c4Name%&lt;/b&gt;&lt;/font&gt;&lt;div&gt;[%c4Type%: %c4Technology%]&lt;/div&gt;&lt;br&gt;&lt;div&gt;&lt;font style=&quot;font-size: 11px&quot;&gt;&lt;font color=&quot;#E6E6E6&quot;&gt;%c4Description%&lt;/font&gt;&lt;/div&gt;" id="8P7EJQTEe8MfBTLbJezU-73">
          <mxCell style="rounded=1;whiteSpace=wrap;html=1;fontSize=11;labelBackgroundColor=none;fillColor=#23A2D9;fontColor=#ffffff;align=center;arcSize=10;strokeColor=#0E7DAD;metaEdit=1;resizable=0;points=[[0.25,0,0],[0.5,0,0],[0.75,0,0],[1,0.25,0],[1,0.5,0],[1,0.75,0],[0.75,1,0],[0.5,1,0],[0.25,1,0],[0,0.75,0],[0,0.5,0],[0,0.25,0]];" vertex="1" parent="1">
            <mxGeometry x="280" y="1120" width="240" height="120" as="geometry" />
          </mxCell>
        </object>
        <mxCell id="8P7EJQTEe8MfBTLbJezU-90" style="edgeStyle=orthogonalEdgeStyle;rounded=1;orthogonalLoop=1;jettySize=auto;html=1;curved=0;" edge="1" parent="1" source="8P7EJQTEe8MfBTLbJezU-75" target="8P7EJQTEe8MfBTLbJezU-77">
          <mxGeometry relative="1" as="geometry">
            <Array as="points">
              <mxPoint x="110" y="1360" />
              <mxPoint x="110" y="1360" />
            </Array>
          </mxGeometry>
        </mxCell>
        <mxCell id="8P7EJQTEe8MfBTLbJezU-220" value="обучение" style="edgeLabel;html=1;align=center;verticalAlign=middle;resizable=0;points=[];fontFamily=Helvetica;fontSize=11;fontColor=default;labelBackgroundColor=default;" vertex="1" connectable="0" parent="8P7EJQTEe8MfBTLbJezU-90">
          <mxGeometry x="-0.3487" y="4" relative="1" as="geometry">
            <mxPoint as="offset" />
          </mxGeometry>
        </mxCell>
        <object placeholders="1" c4Name="AI medical service" c4Type="Container" c4Technology="Python/FastAPI" c4Description="Сервисы машинного обучения для анализа медицинских данных" label="&lt;font style=&quot;font-size: 16px&quot;&gt;&lt;b&gt;%c4Name%&lt;/b&gt;&lt;/font&gt;&lt;div&gt;[%c4Type%: %c4Technology%]&lt;/div&gt;&lt;br&gt;&lt;div&gt;&lt;font style=&quot;font-size: 11px&quot;&gt;&lt;font color=&quot;#E6E6E6&quot;&gt;%c4Description%&lt;/font&gt;&lt;/div&gt;" id="8P7EJQTEe8MfBTLbJezU-75">
          <mxCell style="rounded=1;whiteSpace=wrap;html=1;fontSize=11;labelBackgroundColor=none;fillColor=#23A2D9;fontColor=#ffffff;align=center;arcSize=10;strokeColor=#0E7DAD;metaEdit=1;resizable=0;points=[[0.25,0,0],[0.5,0,0],[0.75,0,0],[1,0.25,0],[1,0.5,0],[1,0.75,0],[0.75,1,0],[0.5,1,0],[0.25,1,0],[0,0.75,0],[0,0.5,0],[0,0.25,0]];" vertex="1" parent="1">
            <mxGeometry y="1280" width="240" height="120" as="geometry" />
          </mxCell>
        </object>
        <mxCell id="8P7EJQTEe8MfBTLbJezU-79" style="edgeStyle=orthogonalEdgeStyle;rounded=1;orthogonalLoop=1;jettySize=auto;html=1;curved=0;" edge="1" parent="1" source="8P7EJQTEe8MfBTLbJezU-76" target="8P7EJQTEe8MfBTLbJezU-77">
          <mxGeometry relative="1" as="geometry">
            <Array as="points">
              <mxPoint x="-70" y="1180" />
              <mxPoint x="-70" y="1180" />
            </Array>
          </mxGeometry>
        </mxCell>
        <mxCell id="8P7EJQTEe8MfBTLbJezU-217" value="Чтение/Запись&lt;div&gt;данных&lt;/div&gt;&lt;div&gt;[JBDC]&lt;/div&gt;" style="edgeLabel;html=1;align=center;verticalAlign=middle;resizable=0;points=[];fontFamily=Helvetica;fontSize=11;fontColor=default;labelBackgroundColor=default;" vertex="1" connectable="0" parent="8P7EJQTEe8MfBTLbJezU-79">
          <mxGeometry x="-0.0139" y="1" relative="1" as="geometry">
            <mxPoint x="1" as="offset" />
          </mxGeometry>
        </mxCell>
        <mxCell id="8P7EJQTEe8MfBTLbJezU-80" style="edgeStyle=orthogonalEdgeStyle;rounded=1;orthogonalLoop=1;jettySize=auto;html=1;curved=0;" edge="1" parent="1" source="8P7EJQTEe8MfBTLbJezU-76" target="8P7EJQTEe8MfBTLbJezU-78">
          <mxGeometry relative="1" as="geometry">
            <Array as="points">
              <mxPoint x="80" y="1080" />
              <mxPoint x="-200" y="1080" />
            </Array>
          </mxGeometry>
        </mxCell>
        <mxCell id="8P7EJQTEe8MfBTLbJezU-215" value="Чтение/Запись&lt;div&gt;данных&lt;/div&gt;&lt;div&gt;[JBDC]&lt;/div&gt;" style="edgeLabel;html=1;align=center;verticalAlign=middle;resizable=0;points=[];fontFamily=Helvetica;fontSize=11;fontColor=default;labelBackgroundColor=default;" vertex="1" connectable="0" parent="8P7EJQTEe8MfBTLbJezU-80">
          <mxGeometry x="0.2047" y="-6" relative="1" as="geometry">
            <mxPoint as="offset" />
          </mxGeometry>
        </mxCell>
        <mxCell id="8P7EJQTEe8MfBTLbJezU-85" style="edgeStyle=orthogonalEdgeStyle;rounded=0;orthogonalLoop=1;jettySize=auto;html=1;startArrow=classic;startFill=1;" edge="1" parent="1" source="8P7EJQTEe8MfBTLbJezU-76" target="8P7EJQTEe8MfBTLbJezU-81">
          <mxGeometry relative="1" as="geometry" />
        </mxCell>
        <object placeholders="1" c4Name="Medical Service" c4Type="Container" c4Technology="Java/Spring Boot" c4Description="Обрабатывает бизнес-логику: ведение медкарт, назначение лечения, управление инвентарем" label="&lt;font style=&quot;font-size: 16px&quot;&gt;&lt;b&gt;%c4Name%&lt;/b&gt;&lt;/font&gt;&lt;div&gt;[%c4Type%: %c4Technology%]&lt;/div&gt;&lt;br&gt;&lt;div&gt;&lt;font style=&quot;font-size: 11px&quot;&gt;&lt;font color=&quot;#E6E6E6&quot;&gt;%c4Description%&lt;/font&gt;&lt;/div&gt;" id="8P7EJQTEe8MfBTLbJezU-76">
          <mxCell style="rounded=1;whiteSpace=wrap;html=1;fontSize=11;labelBackgroundColor=none;fillColor=#23A2D9;fontColor=#ffffff;align=center;arcSize=10;strokeColor=#0E7DAD;metaEdit=1;resizable=0;points=[[0.25,0,0],[0.5,0,0],[0.75,0,0],[1,0.25,0],[1,0.5,0],[1,0.75,0],[0.75,1,0],[0.5,1,0],[0.25,1,0],[0,0.75,0],[0,0.5,0],[0,0.25,0]];" vertex="1" parent="1">
            <mxGeometry y="1120" width="240" height="120" as="geometry" />
          </mxCell>
        </object>
        <object placeholders="1" c4Name="Medical Db" c4Type="Container" c4Technology="PostgreSQL" c4Description="Хранит медицинские карты, истории болезней, результаты исследований. С поддержкой FHIR" label="&lt;font style=&quot;font-size: 16px&quot;&gt;&lt;b&gt;%c4Name%&lt;/b&gt;&lt;/font&gt;&lt;div&gt;[%c4Type%:&amp;nbsp;%c4Technology%]&lt;/div&gt;&lt;br&gt;&lt;div&gt;&lt;font style=&quot;font-size: 11px&quot;&gt;&lt;font color=&quot;#E6E6E6&quot;&gt;%c4Description%&lt;/font&gt;&lt;/div&gt;" id="8P7EJQTEe8MfBTLbJezU-77">
          <mxCell style="shape=cylinder3;size=15;whiteSpace=wrap;html=1;boundedLbl=1;rounded=0;labelBackgroundColor=none;fillColor=#23A2D9;fontSize=12;fontColor=#ffffff;align=center;strokeColor=#0E7DAD;metaEdit=1;points=[[0.5,0,0],[1,0.25,0],[1,0.5,0],[1,0.75,0],[0.5,1,0],[0,0.75,0],[0,0.5,0],[0,0.25,0]];resizable=0;" vertex="1" parent="1">
            <mxGeometry x="-320" y="1120" width="240" height="120" as="geometry" />
          </mxCell>
        </object>
        <object placeholders="1" c4Name="Inventory Db" c4Type="Container" c4Technology="PostgreSQL" c4Description="Хранит данные об оборудовании и расходных материалах в клиниках" label="&lt;font style=&quot;font-size: 16px&quot;&gt;&lt;b&gt;%c4Name%&lt;/b&gt;&lt;/font&gt;&lt;div&gt;[%c4Type%:&amp;nbsp;%c4Technology%]&lt;/div&gt;&lt;br&gt;&lt;div&gt;&lt;font style=&quot;font-size: 11px&quot;&gt;&lt;font color=&quot;#E6E6E6&quot;&gt;%c4Description%&lt;/font&gt;&lt;/div&gt;" id="8P7EJQTEe8MfBTLbJezU-78">
          <mxCell style="shape=cylinder3;size=15;whiteSpace=wrap;html=1;boundedLbl=1;rounded=0;labelBackgroundColor=none;fillColor=#23A2D9;fontSize=12;fontColor=#ffffff;align=center;strokeColor=#0E7DAD;metaEdit=1;points=[[0.5,0,0],[1,0.25,0],[1,0.5,0],[1,0.75,0],[0.5,1,0],[0,0.75,0],[0,0.5,0],[0,0.25,0]];resizable=0;" vertex="1" parent="1">
            <mxGeometry x="-320" y="920" width="240" height="120" as="geometry" />
          </mxCell>
        </object>
        <mxCell id="8P7EJQTEe8MfBTLbJezU-89" style="edgeStyle=orthogonalEdgeStyle;rounded=1;orthogonalLoop=1;jettySize=auto;html=1;curved=0;startArrow=classic;startFill=1;" edge="1" parent="1" source="8P7EJQTEe8MfBTLbJezU-81" target="8P7EJQTEe8MfBTLbJezU-36">
          <mxGeometry relative="1" as="geometry">
            <Array as="points">
              <mxPoint x="210" y="900" />
              <mxPoint x="210" y="900" />
            </Array>
          </mxGeometry>
        </mxCell>
        <mxCell id="8P7EJQTEe8MfBTLbJezU-180" value="topic: med.*" style="edgeLabel;html=1;align=center;verticalAlign=middle;resizable=0;points=[];" vertex="1" connectable="0" parent="8P7EJQTEe8MfBTLbJezU-89">
          <mxGeometry x="-0.3306" y="-5" relative="1" as="geometry">
            <mxPoint as="offset" />
          </mxGeometry>
        </mxCell>
        <object placeholders="1" c4Name="Data Service" c4Type="Container" c4Technology="Kafka Producer/Spring Boot" c4Description="Публикует агрегированные данные для аналитического домена&#xa;Принимает события легаси домена для интерации старых данных в новую систему" label="&lt;font style=&quot;font-size: 16px&quot;&gt;&lt;b&gt;%c4Name%&lt;/b&gt;&lt;/font&gt;&lt;div&gt;[%c4Type%: %c4Technology%]&lt;/div&gt;&lt;br&gt;&lt;div&gt;&lt;font style=&quot;font-size: 11px&quot;&gt;&lt;font color=&quot;#E6E6E6&quot;&gt;%c4Description%&lt;/font&gt;&lt;/div&gt;" id="8P7EJQTEe8MfBTLbJezU-81">
          <mxCell style="rounded=1;whiteSpace=wrap;html=1;fontSize=11;labelBackgroundColor=none;fillColor=#23A2D9;fontColor=#ffffff;align=center;arcSize=10;strokeColor=#0E7DAD;metaEdit=1;resizable=0;points=[[0.25,0,0],[0.5,0,0],[0.75,0,0],[1,0.25,0],[1,0.5,0],[1,0.75,0],[0.75,1,0],[0.5,1,0],[0.25,1,0],[0,0.75,0],[0,0.5,0],[0,0.25,0]];" vertex="1" parent="1">
            <mxGeometry y="920" width="240" height="120" as="geometry" />
          </mxCell>
        </object>
        <mxCell id="8P7EJQTEe8MfBTLbJezU-111" style="edgeStyle=orthogonalEdgeStyle;rounded=0;orthogonalLoop=1;jettySize=auto;html=1;" edge="1" parent="1" source="8P7EJQTEe8MfBTLbJezU-86" target="8P7EJQTEe8MfBTLbJezU-110">
          <mxGeometry relative="1" as="geometry" />
        </mxCell>
        <object placeholders="1" c4Name="Data Warehouse" c4Type="Container" c4Technology="SQL Server 2008" c4Description="Legacy артефакт" label="&lt;font style=&quot;font-size: 16px&quot;&gt;&lt;b&gt;%c4Name%&lt;/b&gt;&lt;/font&gt;&lt;div&gt;[%c4Type%:&amp;nbsp;%c4Technology%]&lt;/div&gt;&lt;br&gt;&lt;div&gt;&lt;font style=&quot;font-size: 11px&quot;&gt;&lt;font color=&quot;#E6E6E6&quot;&gt;%c4Description%&lt;/font&gt;&lt;/div&gt;" id="8P7EJQTEe8MfBTLbJezU-86">
          <mxCell style="shape=cylinder3;size=15;whiteSpace=wrap;html=1;boundedLbl=1;rounded=0;labelBackgroundColor=none;fillColor=#23A2D9;fontSize=12;fontColor=#ffffff;align=center;strokeColor=#0E7DAD;metaEdit=1;points=[[0.5,0,0],[1,0.25,0],[1,0.5,0],[1,0.75,0],[0.5,1,0],[0,0.75,0],[0,0.5,0],[0,0.25,0]];resizable=0;" vertex="1" parent="1">
            <mxGeometry x="1170" y="640" width="240" height="120" as="geometry" />
          </mxCell>
        </object>
        <mxCell id="8P7EJQTEe8MfBTLbJezU-128" style="edgeStyle=orthogonalEdgeStyle;rounded=0;orthogonalLoop=1;jettySize=auto;html=1;startArrow=classic;startFill=1;endArrow=none;endFill=0;" edge="1" parent="1" source="8P7EJQTEe8MfBTLbJezU-95" target="8P7EJQTEe8MfBTLbJezU-185">
          <mxGeometry relative="1" as="geometry">
            <mxPoint x="1320" y="980" as="targetPoint" />
            <Array as="points" />
          </mxGeometry>
        </mxCell>
        <mxCell id="8P7EJQTEe8MfBTLbJezU-142" value="ETL-обработка" style="edgeLabel;html=1;align=center;verticalAlign=middle;resizable=0;points=[];" vertex="1" connectable="0" parent="8P7EJQTEe8MfBTLbJezU-128">
          <mxGeometry x="0.198" relative="1" as="geometry">
            <mxPoint x="3" y="10" as="offset" />
          </mxGeometry>
        </mxCell>
        <mxCell id="8P7EJQTEe8MfBTLbJezU-202" style="edgeStyle=orthogonalEdgeStyle;shape=connector;curved=0;rounded=1;orthogonalLoop=1;jettySize=auto;html=1;strokeColor=default;align=center;verticalAlign=middle;fontFamily=Helvetica;fontSize=11;fontColor=default;labelBackgroundColor=default;endArrow=classic;" edge="1" parent="1" source="8P7EJQTEe8MfBTLbJezU-95" target="8P7EJQTEe8MfBTLbJezU-104">
          <mxGeometry relative="1" as="geometry">
            <Array as="points">
              <mxPoint x="1470" y="1160" />
            </Array>
          </mxGeometry>
        </mxCell>
        <mxCell id="8P7EJQTEe8MfBTLbJezU-204" value="Потребление данных" style="edgeLabel;html=1;align=center;verticalAlign=middle;resizable=0;points=[];fontFamily=Helvetica;fontSize=11;fontColor=default;labelBackgroundColor=default;" vertex="1" connectable="0" parent="8P7EJQTEe8MfBTLbJezU-202">
          <mxGeometry x="0.4837" y="-3" relative="1" as="geometry">
            <mxPoint x="-1" as="offset" />
          </mxGeometry>
        </mxCell>
        <mxCell id="8P7EJQTEe8MfBTLbJezU-206" style="edgeStyle=orthogonalEdgeStyle;shape=connector;curved=0;rounded=1;orthogonalLoop=1;jettySize=auto;html=1;strokeColor=default;align=center;verticalAlign=middle;fontFamily=Helvetica;fontSize=11;fontColor=default;labelBackgroundColor=default;endArrow=classic;" edge="1" parent="1" source="8P7EJQTEe8MfBTLbJezU-95" target="8P7EJQTEe8MfBTLbJezU-132">
          <mxGeometry relative="1" as="geometry">
            <Array as="points">
              <mxPoint x="1500" y="1190" />
              <mxPoint x="1500" y="1190" />
            </Array>
          </mxGeometry>
        </mxCell>
        <object placeholders="1" c4Name="Data Lake" c4Type="Container" c4Technology="Minio/S3, delta lake" c4Description="Хранилище сырых агрегированных данных в формате, пригодном для обработки" label="&lt;font style=&quot;font-size: 16px&quot;&gt;&lt;b&gt;%c4Name%&lt;/b&gt;&lt;/font&gt;&lt;div&gt;[%c4Type%:&amp;nbsp;%c4Technology%]&lt;/div&gt;&lt;br&gt;&lt;div&gt;&lt;font style=&quot;font-size: 11px&quot;&gt;&lt;font color=&quot;#E6E6E6&quot;&gt;%c4Description%&lt;/font&gt;&lt;/div&gt;" id="8P7EJQTEe8MfBTLbJezU-95">
          <mxCell style="shape=cylinder3;size=15;whiteSpace=wrap;html=1;boundedLbl=1;rounded=0;labelBackgroundColor=none;fillColor=#23A2D9;fontSize=12;fontColor=#ffffff;align=center;strokeColor=#0E7DAD;metaEdit=1;points=[[0.5,0,0],[1,0.25,0],[1,0.5,0],[1,0.75,0],[0.5,1,0],[0,0.75,0],[0,0.5,0],[0,0.25,0]];resizable=0;" vertex="1" parent="1">
            <mxGeometry x="1320" y="920" width="240" height="120" as="geometry" />
          </mxCell>
        </object>
        <mxCell id="8P7EJQTEe8MfBTLbJezU-211" style="edgeStyle=orthogonalEdgeStyle;shape=connector;curved=0;rounded=1;orthogonalLoop=1;jettySize=auto;html=1;strokeColor=default;align=center;verticalAlign=middle;fontFamily=Helvetica;fontSize=11;fontColor=default;labelBackgroundColor=default;endArrow=classic;" edge="1" parent="1" source="8P7EJQTEe8MfBTLbJezU-96" target="8P7EJQTEe8MfBTLbJezU-104">
          <mxGeometry relative="1" as="geometry" />
        </mxCell>
        <mxCell id="8P7EJQTEe8MfBTLbJezU-212" style="edgeStyle=orthogonalEdgeStyle;shape=connector;curved=0;rounded=1;orthogonalLoop=1;jettySize=auto;html=1;strokeColor=default;align=center;verticalAlign=middle;fontFamily=Helvetica;fontSize=11;fontColor=default;labelBackgroundColor=default;endArrow=classic;" edge="1" parent="1" source="8P7EJQTEe8MfBTLbJezU-96" target="8P7EJQTEe8MfBTLbJezU-132">
          <mxGeometry relative="1" as="geometry" />
        </mxCell>
        <object placeholders="1" c4Name="Аналитики различных подразделений" c4Type="Person" c4Description="Description of person." label="&lt;font style=&quot;font-size: 16px&quot;&gt;&lt;b&gt;%c4Name%&lt;/b&gt;&lt;/font&gt;&lt;div&gt;[%c4Type%]&lt;/div&gt;&lt;br&gt;&lt;div&gt;&lt;font style=&quot;font-size: 11px&quot;&gt;&lt;font color=&quot;#cccccc&quot;&gt;%c4Description%&lt;/font&gt;&lt;/div&gt;" id="8P7EJQTEe8MfBTLbJezU-96">
          <mxCell style="html=1;fontSize=11;dashed=0;whiteSpace=wrap;fillColor=#083F75;strokeColor=#06315C;fontColor=#ffffff;shape=mxgraph.c4.person2;align=center;metaEdit=1;points=[[0.5,0,0],[1,0.5,0],[1,0.75,0],[0.75,1,0],[0.5,1,0],[0.25,1,0],[0,0.75,0],[0,0.5,0]];resizable=0;" vertex="1" parent="1">
            <mxGeometry x="1000" y="1530" width="200" height="180" as="geometry" />
          </mxCell>
        </object>
        <mxCell id="8P7EJQTEe8MfBTLbJezU-160" style="edgeStyle=orthogonalEdgeStyle;rounded=1;orthogonalLoop=1;jettySize=auto;html=1;curved=0;" edge="1" parent="1" source="8P7EJQTEe8MfBTLbJezU-104" target="8P7EJQTEe8MfBTLbJezU-155">
          <mxGeometry relative="1" as="geometry">
            <Array as="points">
              <mxPoint x="770" y="1185" />
            </Array>
          </mxGeometry>
        </mxCell>
        <mxCell id="8P7EJQTEe8MfBTLbJezU-207" value="Проверка прав" style="edgeLabel;html=1;align=center;verticalAlign=middle;resizable=0;points=[];fontFamily=Helvetica;fontSize=11;fontColor=default;labelBackgroundColor=default;" vertex="1" connectable="0" parent="8P7EJQTEe8MfBTLbJezU-160">
          <mxGeometry x="0.5079" y="-2" relative="1" as="geometry">
            <mxPoint x="97" y="2" as="offset" />
          </mxGeometry>
        </mxCell>
        <mxCell id="8P7EJQTEe8MfBTLbJezU-189" style="edgeStyle=orthogonalEdgeStyle;rounded=1;orthogonalLoop=1;jettySize=auto;html=1;startArrow=classic;startFill=1;curved=0;" edge="1" parent="1" source="8P7EJQTEe8MfBTLbJezU-104" target="8P7EJQTEe8MfBTLbJezU-184">
          <mxGeometry relative="1" as="geometry">
            <Array as="points">
              <mxPoint x="720" y="1160" />
            </Array>
          </mxGeometry>
        </mxCell>
        <mxCell id="8P7EJQTEe8MfBTLbJezU-190" value="Интеграция" style="edgeLabel;html=1;align=center;verticalAlign=middle;resizable=0;points=[];" vertex="1" connectable="0" parent="8P7EJQTEe8MfBTLbJezU-189">
          <mxGeometry x="0.075" y="2" relative="1" as="geometry">
            <mxPoint x="-46" y="-42" as="offset" />
          </mxGeometry>
        </mxCell>
        <object placeholders="1" c4Name="BI Portal" c4Type="Container" c4Technology="Power BI/Superset" c4Description="Интерфейс для отчетов" label="&lt;font style=&quot;font-size: 16px&quot;&gt;&lt;b&gt;%c4Name%&lt;/b&gt;&lt;/font&gt;&lt;div&gt;[%c4Type%: %c4Technology%]&lt;/div&gt;&lt;br&gt;&lt;div&gt;&lt;font style=&quot;font-size: 11px&quot;&gt;&lt;font color=&quot;#E6E6E6&quot;&gt;%c4Description%&lt;/font&gt;&lt;/div&gt;" id="8P7EJQTEe8MfBTLbJezU-104">
          <mxCell style="rounded=1;whiteSpace=wrap;html=1;fontSize=11;labelBackgroundColor=none;fillColor=#23A2D9;fontColor=#ffffff;align=center;arcSize=10;strokeColor=#0E7DAD;metaEdit=1;resizable=0;points=[[0.25,0,0],[0.5,0,0],[0.75,0,0],[1,0.25,0],[1,0.5,0],[1,0.75,0],[0.75,1,0],[0.5,1,0],[0.25,1,0],[0,0.75,0],[0,0.5,0],[0,0.25,0]];" vertex="1" parent="1">
            <mxGeometry x="980" y="1110" width="240" height="120" as="geometry" />
          </mxCell>
        </object>
        <mxCell id="8P7EJQTEe8MfBTLbJezU-113" style="edgeStyle=orthogonalEdgeStyle;rounded=1;orthogonalLoop=1;jettySize=auto;html=1;curved=0;" edge="1" parent="1" source="8P7EJQTEe8MfBTLbJezU-110" target="8P7EJQTEe8MfBTLbJezU-36">
          <mxGeometry relative="1" as="geometry">
            <Array as="points">
              <mxPoint x="980" y="610" />
              <mxPoint x="290" y="610" />
            </Array>
          </mxGeometry>
        </mxCell>
        <mxCell id="8P7EJQTEe8MfBTLbJezU-114" value="Topics: med.* fintech.* user.*" style="edgeLabel;html=1;align=center;verticalAlign=middle;resizable=0;points=[];" vertex="1" connectable="0" parent="8P7EJQTEe8MfBTLbJezU-113">
          <mxGeometry x="-0.394" y="3" relative="1" as="geometry">
            <mxPoint as="offset" />
          </mxGeometry>
        </mxCell>
        <mxCell id="8P7EJQTEe8MfBTLbJezU-193" style="edgeStyle=orthogonalEdgeStyle;rounded=1;orthogonalLoop=1;jettySize=auto;html=1;curved=0;" edge="1" parent="1" source="8P7EJQTEe8MfBTLbJezU-110" target="8P7EJQTEe8MfBTLbJezU-185">
          <mxGeometry relative="1" as="geometry">
            <Array as="points">
              <mxPoint x="1070" y="900" />
              <mxPoint x="1070" y="900" />
            </Array>
          </mxGeometry>
        </mxCell>
        <mxCell id="8P7EJQTEe8MfBTLbJezU-195" value="Данные" style="edgeLabel;html=1;align=center;verticalAlign=middle;resizable=0;points=[];" vertex="1" connectable="0" parent="8P7EJQTEe8MfBTLbJezU-193">
          <mxGeometry x="-0.0397" y="1" relative="1" as="geometry">
            <mxPoint y="-17" as="offset" />
          </mxGeometry>
        </mxCell>
        <mxCell id="8P7EJQTEe8MfBTLbJezU-199" style="edgeStyle=orthogonalEdgeStyle;shape=connector;curved=0;rounded=1;orthogonalLoop=1;jettySize=auto;html=1;strokeColor=default;align=center;verticalAlign=middle;fontFamily=Helvetica;fontSize=11;fontColor=default;labelBackgroundColor=default;endArrow=classic;" edge="1" parent="1" source="8P7EJQTEe8MfBTLbJezU-110" target="8P7EJQTEe8MfBTLbJezU-184">
          <mxGeometry relative="1" as="geometry">
            <Array as="points">
              <mxPoint x="740" y="730" />
            </Array>
          </mxGeometry>
        </mxCell>
        <mxCell id="8P7EJQTEe8MfBTLbJezU-210" value="контракты" style="edgeLabel;html=1;align=center;verticalAlign=middle;resizable=0;points=[];fontFamily=Helvetica;fontSize=11;fontColor=default;labelBackgroundColor=default;" vertex="1" connectable="0" parent="8P7EJQTEe8MfBTLbJezU-199">
          <mxGeometry x="-0.2601" y="2" relative="1" as="geometry">
            <mxPoint x="45" as="offset" />
          </mxGeometry>
        </mxCell>
        <object placeholders="1" c4Name="CDC agent" c4Type="Container" c4Technology="Debezium" c4Description="Считывает Transaction Log&#xa;Преобразует изменения в структурированные события" label="&lt;font style=&quot;font-size: 16px&quot;&gt;&lt;b&gt;%c4Name%&lt;/b&gt;&lt;/font&gt;&lt;div&gt;[%c4Type%: %c4Technology%]&lt;/div&gt;&lt;br&gt;&lt;div&gt;&lt;font style=&quot;font-size: 11px&quot;&gt;&lt;font color=&quot;#E6E6E6&quot;&gt;%c4Description%&lt;/font&gt;&lt;/div&gt;" id="8P7EJQTEe8MfBTLbJezU-110">
          <mxCell style="rounded=1;whiteSpace=wrap;html=1;fontSize=11;labelBackgroundColor=none;fillColor=#23A2D9;fontColor=#ffffff;align=center;arcSize=10;strokeColor=#0E7DAD;metaEdit=1;resizable=0;points=[[0.25,0,0],[0.5,0,0],[0.75,0,0],[1,0.25,0],[1,0.5,0],[1,0.75,0],[0.75,1,0],[0.5,1,0],[0.25,1,0],[0,0.75,0],[0,0.5,0],[0,0.25,0]];" vertex="1" parent="1">
            <mxGeometry x="860" y="640" width="240" height="120" as="geometry" />
          </mxCell>
        </object>
        <object placeholders="1" c4Name="UI" c4Type="Container" c4Technology="Power Builder" c4Description="Description of container role/responsibility." label="&lt;font style=&quot;font-size: 16px&quot;&gt;&lt;b&gt;%c4Name%&lt;/b&gt;&lt;/font&gt;&lt;div&gt;[%c4Type%: %c4Technology%]&lt;/div&gt;&lt;br&gt;&lt;div&gt;&lt;font style=&quot;font-size: 11px&quot;&gt;&lt;font color=&quot;#E6E6E6&quot;&gt;%c4Description%&lt;/font&gt;&lt;/div&gt;" id="8P7EJQTEe8MfBTLbJezU-117">
          <mxCell style="rounded=1;whiteSpace=wrap;html=1;fontSize=11;labelBackgroundColor=none;fillColor=#23A2D9;fontColor=#ffffff;align=center;arcSize=10;strokeColor=#0E7DAD;metaEdit=1;resizable=0;points=[[0.25,0,0],[0.5,0,0],[0.75,0,0],[1,0.25,0],[1,0.5,0],[1,0.75,0],[0.75,1,0],[0.5,1,0],[0.25,1,0],[0,0.75,0],[0,0.5,0],[0,0.25,0]];" vertex="1" parent="1">
            <mxGeometry x="1480" y="640" width="240" height="120" as="geometry" />
          </mxCell>
        </object>
        <object placeholders="1" c4Name="Legacy" c4Type="SystemScopeBoundary" c4Application="Software System" label="&lt;font style=&quot;font-size: 16px&quot;&gt;&lt;b&gt;&lt;div style=&quot;text-align: left&quot;&gt;%c4Name%&lt;/div&gt;&lt;/b&gt;&lt;/font&gt;&lt;div style=&quot;text-align: left&quot;&gt;[%c4Application%]&lt;/div&gt;" id="8P7EJQTEe8MfBTLbJezU-118">
          <mxCell style="rounded=1;fontSize=11;whiteSpace=wrap;html=1;dashed=1;arcSize=20;fillColor=none;strokeColor=#666666;fontColor=#333333;labelBackgroundColor=none;align=left;verticalAlign=bottom;labelBorderColor=none;spacingTop=0;spacing=10;dashPattern=8 4;metaEdit=1;rotatable=0;perimeter=rectanglePerimeter;noLabel=0;labelPadding=0;allowArrows=0;connectable=0;expand=0;recursiveResize=0;editable=1;pointerEvents=0;absoluteArcSize=1;points=[[0.25,0,0],[0.5,0,0],[0.75,0,0],[1,0.25,0],[1,0.5,0],[1,0.75,0],[0.75,1,0],[0.5,1,0],[0.25,1,0],[0,0.75,0],[0,0.5,0],[0,0.25,0]];" vertex="1" parent="1">
            <mxGeometry x="820" y="580" width="940" height="260" as="geometry" />
          </mxCell>
        </object>
        <mxCell id="8P7EJQTEe8MfBTLbJezU-119" style="edgeStyle=orthogonalEdgeStyle;rounded=0;orthogonalLoop=1;jettySize=auto;html=1;entryX=1;entryY=0.5;entryDx=0;entryDy=0;entryPerimeter=0;" edge="1" parent="1" source="8P7EJQTEe8MfBTLbJezU-117" target="8P7EJQTEe8MfBTLbJezU-86">
          <mxGeometry relative="1" as="geometry" />
        </mxCell>
        <object placeholders="1" c4Name="Операторы клиник" c4Type="Person" c4Description="Description of person." label="&lt;font style=&quot;font-size: 16px&quot;&gt;&lt;b&gt;%c4Name%&lt;/b&gt;&lt;/font&gt;&lt;div&gt;[%c4Type%]&lt;/div&gt;&lt;br&gt;&lt;div&gt;&lt;font style=&quot;font-size: 11px&quot;&gt;&lt;font color=&quot;#cccccc&quot;&gt;%c4Description%&lt;/font&gt;&lt;/div&gt;" id="8P7EJQTEe8MfBTLbJezU-120">
          <mxCell style="html=1;fontSize=11;dashed=0;whiteSpace=wrap;fillColor=#083F75;strokeColor=#06315C;fontColor=#ffffff;shape=mxgraph.c4.person2;align=center;metaEdit=1;points=[[0.5,0,0],[1,0.5,0],[1,0.75,0],[0.75,1,0],[0.5,1,0],[0.25,1,0],[0,0.75,0],[0,0.5,0]];resizable=0;" vertex="1" parent="1">
            <mxGeometry x="1840" y="600" width="200" height="180" as="geometry" />
          </mxCell>
        </object>
        <mxCell id="8P7EJQTEe8MfBTLbJezU-121" style="edgeStyle=orthogonalEdgeStyle;rounded=0;orthogonalLoop=1;jettySize=auto;html=1;entryX=1;entryY=0.417;entryDx=0;entryDy=0;entryPerimeter=0;" edge="1" parent="1" source="8P7EJQTEe8MfBTLbJezU-120" target="8P7EJQTEe8MfBTLbJezU-117">
          <mxGeometry relative="1" as="geometry" />
        </mxCell>
        <mxCell id="8P7EJQTEe8MfBTLbJezU-134" style="edgeStyle=orthogonalEdgeStyle;rounded=1;orthogonalLoop=1;jettySize=auto;html=1;startArrow=none;startFill=0;curved=0;" edge="1" parent="1" source="8P7EJQTEe8MfBTLbJezU-132" target="8P7EJQTEe8MfBTLbJezU-104">
          <mxGeometry relative="1" as="geometry">
            <Array as="points">
              <mxPoint x="1390" y="1185" />
            </Array>
          </mxGeometry>
        </mxCell>
        <mxCell id="8P7EJQTEe8MfBTLbJezU-138" value="Создание&lt;div&gt;отчетов&lt;/div&gt;" style="edgeLabel;html=1;align=center;verticalAlign=middle;resizable=0;points=[];" vertex="1" connectable="0" parent="8P7EJQTEe8MfBTLbJezU-134">
          <mxGeometry x="0.0437" y="-4" relative="1" as="geometry">
            <mxPoint x="49" y="19" as="offset" />
          </mxGeometry>
        </mxCell>
        <mxCell id="8P7EJQTEe8MfBTLbJezU-177" style="edgeStyle=orthogonalEdgeStyle;rounded=0;orthogonalLoop=1;jettySize=auto;html=1;" edge="1" parent="1" source="8P7EJQTEe8MfBTLbJezU-132" target="8P7EJQTEe8MfBTLbJezU-155">
          <mxGeometry relative="1" as="geometry" />
        </mxCell>
        <mxCell id="8P7EJQTEe8MfBTLbJezU-208" value="Проверка прав" style="edgeLabel;html=1;align=center;verticalAlign=middle;resizable=0;points=[];fontFamily=Helvetica;fontSize=11;fontColor=default;labelBackgroundColor=default;" vertex="1" connectable="0" parent="8P7EJQTEe8MfBTLbJezU-177">
          <mxGeometry x="0.1995" y="5" relative="1" as="geometry">
            <mxPoint x="24" y="-5" as="offset" />
          </mxGeometry>
        </mxCell>
        <object placeholders="1" c4Name="Report Builder" c4Type="Container" c4Technology="e.g. SpringBoot, ElasticSearch, etc." c4Description="Конструктор кастомных отчетов&#xa;&#xa;" label="&lt;font style=&quot;font-size: 16px&quot;&gt;&lt;b&gt;%c4Name%&lt;/b&gt;&lt;/font&gt;&lt;div&gt;[%c4Type%: %c4Technology%]&lt;/div&gt;&lt;br&gt;&lt;div&gt;&lt;font style=&quot;font-size: 11px&quot;&gt;&lt;font color=&quot;#E6E6E6&quot;&gt;%c4Description%&lt;/font&gt;&lt;/div&gt;" id="8P7EJQTEe8MfBTLbJezU-132">
          <mxCell style="rounded=1;whiteSpace=wrap;html=1;fontSize=11;labelBackgroundColor=none;fillColor=#23A2D9;fontColor=#ffffff;align=center;arcSize=10;strokeColor=#0E7DAD;metaEdit=1;resizable=0;points=[[0.25,0,0],[0.5,0,0],[0.75,0,0],[1,0.25,0],[1,0.5,0],[1,0.75,0],[0.75,1,0],[0.5,1,0],[0.25,1,0],[0,0.75,0],[0,0.5,0],[0,0.25,0]];" vertex="1" parent="1">
            <mxGeometry x="1320" y="1250" width="240" height="120" as="geometry" />
          </mxCell>
        </object>
        <mxCell id="8P7EJQTEe8MfBTLbJezU-173" style="edgeStyle=orthogonalEdgeStyle;rounded=1;orthogonalLoop=1;jettySize=auto;html=1;curved=0;" edge="1" parent="1" source="8P7EJQTEe8MfBTLbJezU-155" target="8P7EJQTEe8MfBTLbJezU-7">
          <mxGeometry relative="1" as="geometry">
            <mxPoint x="580" y="760" as="targetPoint" />
            <Array as="points">
              <mxPoint x="600" y="1330" />
              <mxPoint x="600" y="420" />
            </Array>
          </mxGeometry>
        </mxCell>
        <object placeholders="1" c4Name="Access Control Service" c4Type="Container" c4Technology="RBAC, ABAC-модель, Java/Spring" c4Description="Управление ролями и правами доступа к данным и сервисам" label="&lt;font style=&quot;font-size: 16px&quot;&gt;&lt;b&gt;%c4Name%&lt;/b&gt;&lt;/font&gt;&lt;div&gt;[%c4Type%: %c4Technology%]&lt;/div&gt;&lt;br&gt;&lt;div&gt;&lt;font style=&quot;font-size: 11px&quot;&gt;&lt;font color=&quot;#E6E6E6&quot;&gt;%c4Description%&lt;/font&gt;&lt;/div&gt;" id="8P7EJQTEe8MfBTLbJezU-155">
          <mxCell style="rounded=1;whiteSpace=wrap;html=1;fontSize=11;labelBackgroundColor=none;fillColor=#23A2D9;fontColor=#ffffff;align=center;arcSize=10;strokeColor=#0E7DAD;metaEdit=1;resizable=0;points=[[0.25,0,0],[0.5,0,0],[0.75,0,0],[1,0.25,0],[1,0.5,0],[1,0.75,0],[0.75,1,0],[0.5,1,0],[0.25,1,0],[0,0.75,0],[0,0.5,0],[0,0.25,0]];" vertex="1" parent="1">
            <mxGeometry x="640" y="1250" width="240" height="120" as="geometry" />
          </mxCell>
        </object>
        <mxCell id="8P7EJQTEe8MfBTLbJezU-170" style="edgeStyle=orthogonalEdgeStyle;rounded=1;orthogonalLoop=1;jettySize=auto;html=1;curved=0;" edge="1" parent="1" source="8P7EJQTEe8MfBTLbJezU-169" target="8P7EJQTEe8MfBTLbJezU-36">
          <mxGeometry relative="1" as="geometry">
            <Array as="points">
              <mxPoint x="50" y="700" />
              <mxPoint x="50" y="700" />
            </Array>
          </mxGeometry>
        </mxCell>
        <mxCell id="8P7EJQTEe8MfBTLbJezU-196" value="Публикация схем,&amp;nbsp;&lt;div&gt;политик&lt;/div&gt;" style="edgeLabel;html=1;align=center;verticalAlign=middle;resizable=0;points=[];" vertex="1" connectable="0" parent="8P7EJQTEe8MfBTLbJezU-170">
          <mxGeometry x="-0.3484" y="-4" relative="1" as="geometry">
            <mxPoint x="17" y="-4" as="offset" />
          </mxGeometry>
        </mxCell>
        <object placeholders="1" c4Name="CI\CD" c4Type="Container" c4Technology="Git, Jenkins" c4Description="Домены хранят публикуют схемы" label="&lt;font style=&quot;font-size: 16px&quot;&gt;&lt;b&gt;%c4Name%&lt;/b&gt;&lt;/font&gt;&lt;div&gt;[%c4Type%: %c4Technology%]&lt;/div&gt;&lt;br&gt;&lt;div&gt;&lt;font style=&quot;font-size: 11px&quot;&gt;&lt;font color=&quot;#E6E6E6&quot;&gt;%c4Description%&lt;/font&gt;&lt;/div&gt;" id="8P7EJQTEe8MfBTLbJezU-169">
          <mxCell style="rounded=1;whiteSpace=wrap;html=1;fontSize=11;labelBackgroundColor=none;fillColor=#23A2D9;fontColor=#ffffff;align=center;arcSize=10;strokeColor=#0E7DAD;metaEdit=1;resizable=0;points=[[0.25,0,0],[0.5,0,0],[0.75,0,0],[1,0.25,0],[1,0.5,0],[1,0.75,0],[0.75,1,0],[0.5,1,0],[0.25,1,0],[0,0.75,0],[0,0.5,0],[0,0.25,0]];" vertex="1" parent="1">
            <mxGeometry x="-200" y="640" width="240" height="120" as="geometry" />
          </mxCell>
        </object>
        <mxCell id="8P7EJQTEe8MfBTLbJezU-186" style="edgeStyle=orthogonalEdgeStyle;rounded=0;orthogonalLoop=1;jettySize=auto;html=1;startArrow=classic;startFill=1;endArrow=classic;endFill=1;" edge="1" parent="1" source="8P7EJQTEe8MfBTLbJezU-184" target="8P7EJQTEe8MfBTLbJezU-185">
          <mxGeometry relative="1" as="geometry" />
        </mxCell>
        <mxCell id="8P7EJQTEe8MfBTLbJezU-187" value="Интеграция" style="edgeLabel;html=1;align=center;verticalAlign=middle;resizable=0;points=[];" vertex="1" connectable="0" parent="8P7EJQTEe8MfBTLbJezU-186">
          <mxGeometry x="0.2833" y="2" relative="1" as="geometry">
            <mxPoint x="-14" y="2" as="offset" />
          </mxGeometry>
        </mxCell>
        <object placeholders="1" c4Name="Data Catalog" c4Type="Container" c4Technology="DataHub" c4Description="управления метаданными" label="&lt;font style=&quot;font-size: 16px&quot;&gt;&lt;b&gt;%c4Name%&lt;/b&gt;&lt;/font&gt;&lt;div&gt;[%c4Type%: %c4Technology%]&lt;/div&gt;&lt;br&gt;&lt;div&gt;&lt;font style=&quot;font-size: 11px&quot;&gt;&lt;font color=&quot;#E6E6E6&quot;&gt;%c4Description%&lt;/font&gt;&lt;/div&gt;" id="8P7EJQTEe8MfBTLbJezU-184">
          <mxCell style="rounded=1;whiteSpace=wrap;html=1;fontSize=11;labelBackgroundColor=none;fillColor=#23A2D9;fontColor=#ffffff;align=center;arcSize=10;strokeColor=#0E7DAD;metaEdit=1;resizable=0;points=[[0.25,0,0],[0.5,0,0],[0.75,0,0],[1,0.25,0],[1,0.5,0],[1,0.75,0],[0.75,1,0],[0.5,1,0],[0.25,1,0],[0,0.75,0],[0,0.5,0],[0,0.25,0]];" vertex="1" parent="1">
            <mxGeometry x="640" y="920" width="240" height="120" as="geometry" />
          </mxCell>
        </object>
        <object placeholders="1" c4Name="Data Processing" c4Type="Container" c4Technology="Apache Airflow" c4Description="оркестрация ETL/ELT пайплайнов" label="&lt;font style=&quot;font-size: 16px&quot;&gt;&lt;b&gt;%c4Name%&lt;/b&gt;&lt;/font&gt;&lt;div&gt;[%c4Type%: %c4Technology%]&lt;/div&gt;&lt;br&gt;&lt;div&gt;&lt;font style=&quot;font-size: 11px&quot;&gt;&lt;font color=&quot;#E6E6E6&quot;&gt;%c4Description%&lt;/font&gt;&lt;/div&gt;" id="8P7EJQTEe8MfBTLbJezU-185">
          <mxCell style="rounded=1;whiteSpace=wrap;html=1;fontSize=11;labelBackgroundColor=none;fillColor=#23A2D9;fontColor=#ffffff;align=center;arcSize=10;strokeColor=#0E7DAD;metaEdit=1;resizable=0;points=[[0.25,0,0],[0.5,0,0],[0.75,0,0],[1,0.25,0],[1,0.5,0],[1,0.75,0],[0.75,1,0],[0.5,1,0],[0.25,1,0],[0,0.75,0],[0,0.5,0],[0,0.25,0]];" vertex="1" parent="1">
            <mxGeometry x="980" y="920" width="240" height="120" as="geometry" />
          </mxCell>
        </object>
        <mxCell id="8P7EJQTEe8MfBTLbJezU-200" style="edgeStyle=orthogonalEdgeStyle;shape=connector;curved=0;rounded=1;orthogonalLoop=1;jettySize=auto;html=1;strokeColor=default;align=center;verticalAlign=middle;fontFamily=Helvetica;fontSize=11;fontColor=default;labelBackgroundColor=default;endArrow=classic;" edge="1" parent="1" source="8P7EJQTEe8MfBTLbJezU-95" target="8P7EJQTEe8MfBTLbJezU-184">
          <mxGeometry relative="1" as="geometry">
            <Array as="points">
              <mxPoint x="1440" y="1080" />
              <mxPoint x="760" y="1080" />
            </Array>
          </mxGeometry>
        </mxCell>
        <mxCell id="8P7EJQTEe8MfBTLbJezU-201" value="Схемы таблиц/файлов" style="edgeLabel;html=1;align=center;verticalAlign=middle;resizable=0;points=[];fontFamily=Helvetica;fontSize=11;fontColor=default;labelBackgroundColor=default;" vertex="1" connectable="0" parent="8P7EJQTEe8MfBTLbJezU-200">
          <mxGeometry x="0.0738" relative="1" as="geometry">
            <mxPoint x="115" as="offset" />
          </mxGeometry>
        </mxCell>
        <mxCell id="8P7EJQTEe8MfBTLbJezU-213" style="edgeStyle=orthogonalEdgeStyle;shape=connector;curved=0;rounded=1;orthogonalLoop=1;jettySize=auto;html=1;entryX=1;entryY=0.25;entryDx=0;entryDy=0;entryPerimeter=0;strokeColor=default;align=center;verticalAlign=middle;fontFamily=Helvetica;fontSize=11;fontColor=default;labelBackgroundColor=default;endArrow=classic;dashed=1;" edge="1" parent="1" source="8P7EJQTEe8MfBTLbJezU-86" target="8P7EJQTEe8MfBTLbJezU-104">
          <mxGeometry relative="1" as="geometry" />
        </mxCell>
        <mxCell id="8P7EJQTEe8MfBTLbJezU-214" value="Потребление легаси&lt;br&gt;(при необходимости)" style="edgeLabel;html=1;align=center;verticalAlign=middle;resizable=0;points=[];fontFamily=Helvetica;fontSize=11;fontColor=default;labelBackgroundColor=default;" vertex="1" connectable="0" parent="8P7EJQTEe8MfBTLbJezU-213">
          <mxGeometry x="-0.8693" y="-4" relative="1" as="geometry">
            <mxPoint as="offset" />
          </mxGeometry>
        </mxCell>
        <mxCell id="8P7EJQTEe8MfBTLbJezU-222" style="edgeStyle=orthogonalEdgeStyle;shape=connector;curved=0;rounded=1;orthogonalLoop=1;jettySize=auto;html=1;strokeColor=default;align=center;verticalAlign=middle;fontFamily=Helvetica;fontSize=11;fontColor=default;labelBackgroundColor=default;endArrow=classic;" edge="1" parent="1" source="8P7EJQTEe8MfBTLbJezU-221" target="8P7EJQTEe8MfBTLbJezU-73">
          <mxGeometry relative="1" as="geometry" />
        </mxCell>
        <object placeholders="1" c4Name="Операторы клиник" c4Type="Person" c4Description="Description of person." label="&lt;font style=&quot;font-size: 16px&quot;&gt;&lt;b&gt;%c4Name%&lt;/b&gt;&lt;/font&gt;&lt;div&gt;[%c4Type%]&lt;/div&gt;&lt;br&gt;&lt;div&gt;&lt;font style=&quot;font-size: 11px&quot;&gt;&lt;font color=&quot;#cccccc&quot;&gt;%c4Description%&lt;/font&gt;&lt;/div&gt;" id="8P7EJQTEe8MfBTLbJezU-221">
          <mxCell style="html=1;fontSize=11;dashed=0;whiteSpace=wrap;fillColor=#083F75;strokeColor=#06315C;fontColor=#ffffff;shape=mxgraph.c4.person2;align=center;metaEdit=1;points=[[0.5,0,0],[1,0.5,0],[1,0.75,0],[0.75,1,0],[0.5,1,0],[0.25,1,0],[0,0.75,0],[0,0.5,0]];resizable=0;" vertex="1" parent="1">
            <mxGeometry x="300" y="1530" width="200" height="180" as="geometry" />
          </mxCell>
        </object>
      </root>
    </mxGraphModel>
  </diagram>
</mxfile>
